<svg width="300" height="60" viewBox="0 0 300 60" fill="none" xmlns="http://www.w3.org/2000/svg">
<path d="M3.33411 42.1704C2.4879 42.1704 1.77797 41.8863 1.20432 41.315C0.931762 41.0341 0.716247 40.7149 0.557781 40.3574C0.405654 39.9935 0.32959 39.6009 0.32959 39.1827V14.7961C0.32959 14.3875 0.405654 13.9981 0.557781 13.6215C0.716247 13.248 0.931762 12.9256 1.20432 12.6511C1.48322 12.3798 1.80333 12.1627 2.1678 12C2.53861 11.8404 2.92844 11.7574 3.33411 11.7574H11.8406C13.3619 11.7574 14.8102 12.051 16.1889 12.6384C17.5739 13.2257 18.7877 14.0364 19.8273 15.0642C20.8827 16.1208 21.6972 17.3465 22.274 18.7414C22.8477 20.1299 23.1361 21.6588 23.1361 23.325C23.1361 24.8508 22.8445 26.3 22.2613 27.6789C21.6845 29.0514 20.8732 30.2548 19.8273 31.2922C18.7877 32.3328 17.5739 33.1403 16.1889 33.7181C14.8102 34.2894 13.3619 34.5735 11.8406 34.5735H6.35131V39.1827C6.35131 39.6009 6.26891 39.9935 6.11044 40.3574C5.95831 40.7149 5.7428 41.0341 5.4639 41.315C4.88708 41.8863 4.17715 42.1704 3.33411 42.1704ZM6.35131 28.5088H11.9293C12.6044 28.5088 13.2604 28.3684 13.8943 28.0875C14.5282 27.8066 15.0796 27.4235 15.555 26.9384C16.0178 26.4468 16.3854 25.8882 16.658 25.2658C16.9274 24.6465 17.0636 23.9986 17.0636 23.325C17.0636 22.6292 16.9242 21.9206 16.6453 21.2056C16.3664 20.4906 15.9924 19.9001 15.5297 19.4309C15.0543 18.9457 14.5028 18.5626 13.869 18.2817C13.2351 17.9945 12.5885 17.8476 11.9293 17.8476H6.35131V28.5088Z" fill="url(#paint0_linear_126_1027)"/>
<path d="M34.8703 41.9023C33.8308 41.9023 32.8356 41.7236 31.8911 41.3661C30.953 41.0086 30.1195 40.5042 29.3937 39.8467C28.6647 39.1827 28.1006 38.3975 27.6949 37.4846C27.2893 36.5653 27.0864 35.5758 27.0864 34.5097V15.026C27.0864 14.1769 27.3717 13.4619 27.9485 12.881C28.5221 12.2873 29.1972 11.9872 29.9769 11.9872C30.3889 11.9872 30.7882 12.0702 31.1685 12.2298C31.5552 12.3926 31.8943 12.6096 32.1827 12.881C32.4679 13.1714 32.693 13.5002 32.8546 13.8641C33.0226 14.2312 33.1081 14.6174 33.1081 15.026V34.6502C33.1842 35.5184 33.7705 35.9525 34.8703 35.9525C35.7482 35.9525 36.4581 36.2398 37.0001 36.8079C37.5642 37.3793 37.8495 38.0911 37.8495 38.9402C37.8495 39.7924 37.5642 40.4978 37.0001 41.0596C36.4423 41.6214 35.7323 41.9023 34.8703 41.9023Z" fill="url(#paint1_linear_126_1027)"/>
<path d="M50.4208 42.1577C48.9249 42.1577 47.5082 41.8736 46.1739 41.3022C44.8365 40.734 43.6543 39.9297 42.6243 38.8891C41.5911 37.8677 40.7892 36.6802 40.2156 35.3269C39.6483 33.9735 39.3662 32.5435 39.3662 31.0369C39.3662 29.5302 39.6483 28.1002 40.2156 26.7469C40.7892 25.3871 41.5911 24.1869 42.6243 23.1463C43.6543 22.1089 44.8365 21.3046 46.1739 20.7332C47.5082 20.165 48.9249 19.8777 50.4208 19.8777C51.8977 19.8777 53.3049 20.165 54.6424 20.7332C55.9767 21.295 57.1525 22.0834 58.1667 23.0952C59.1808 24.1007 59.9732 25.2754 60.55 26.6192C61.1331 27.9566 61.4406 29.3706 61.4754 30.8581V39.0551C61.4754 39.9169 61.1775 40.6447 60.588 41.2384C59.9859 41.8512 59.2569 42.1577 58.3948 42.1577C57.2792 42.1577 56.433 41.6789 55.8594 40.7149C54.1606 41.6789 52.3478 42.1577 50.4208 42.1577ZM50.4208 36.0546C51.0959 36.0546 51.7424 35.9269 52.3605 35.6716C52.9848 35.4162 53.5204 35.0587 53.9705 34.5991C54.4427 34.1331 54.8072 33.5968 55.0607 32.9903C55.3143 32.3775 55.441 31.7263 55.441 31.0369C55.441 30.357 55.3143 29.7154 55.0607 29.1089C54.8072 28.4961 54.4427 27.9566 53.9705 27.4874C53.5204 27.0277 52.9848 26.6702 52.3605 26.4149C51.7424 26.1531 51.0959 26.0191 50.4208 26.0191C49.7521 26.0191 49.1087 26.1531 48.4939 26.4149C47.8854 26.6702 47.3561 27.0277 46.9092 27.4874C46.4338 27.9566 46.0662 28.4961 45.8063 29.1089C45.5432 29.7154 45.4133 30.357 45.4133 31.0369C45.4133 31.7263 45.5432 32.3775 45.8063 32.9903C46.0662 33.5968 46.4338 34.1331 46.9092 34.5991C47.3561 35.0587 47.8854 35.4162 48.4939 35.6716C49.1087 35.9269 49.7521 36.0546 50.4208 36.0546Z" fill="url(#paint2_linear_126_1027)"/>
<path d="M67.9019 41.9023C67.0556 41.9023 66.333 41.615 65.734 41.0341C65.116 40.4563 64.8086 39.7573 64.8086 38.9402V30.7177C64.8086 29.2621 65.0875 27.8768 65.6453 26.5553C66.2031 25.2275 66.9796 24.0624 67.9779 23.0569C68.9731 22.0547 70.1204 21.2758 71.4135 20.7204C72.7129 20.1586 74.0916 19.8777 75.5463 19.8777C77.0073 19.8777 78.405 20.1586 79.7425 20.7204C81.0767 21.2758 82.2589 22.0547 83.2921 23.0569C84.3126 24.0624 85.1176 25.2275 85.7008 26.5553C86.284 27.8768 86.5755 29.2621 86.5755 30.7177V38.9402C86.5755 39.7765 86.2966 40.4723 85.7388 41.0341C85.162 41.615 84.4616 41.9023 83.6344 41.9023C82.7723 41.9023 82.0529 41.615 81.4793 41.0341C80.8707 40.4723 80.5665 39.7765 80.5665 38.9402V30.7432C80.5411 29.4249 80.0214 28.3013 79.0072 27.3725C78.5413 26.932 78.0057 26.5904 77.3972 26.351C76.795 26.1053 76.1801 25.9808 75.5463 25.9808C74.9124 25.9808 74.3071 26.1021 73.7334 26.3383C73.1566 26.5681 72.6685 26.8873 72.2628 27.2959C71.8382 27.7236 71.5022 28.2215 71.2487 28.7897C71.0015 29.3611 70.8715 29.9644 70.8557 30.6027V38.9402C70.8557 39.7924 70.5673 40.4915 69.9936 41.0341C69.4168 41.615 68.7195 41.9023 67.9019 41.9023Z" fill="url(#paint3_linear_126_1027)"/>
<path d="M100.737 42.1577C99.2412 42.1577 97.8118 41.8704 96.4522 41.2894C95.0894 40.7117 93.8977 39.9105 92.8772 38.8891C91.844 37.8613 91.039 36.6739 90.4558 35.3269C89.879 33.9735 89.5938 32.5435 89.5938 31.0369C89.5938 29.5239 89.879 28.0843 90.4558 26.7213C91.039 25.3615 91.844 24.1614 92.8772 23.1208C93.8977 22.0994 95.0862 21.3046 96.4395 20.7332C97.7896 20.165 99.2222 19.8777 100.737 19.8777C102.214 19.8777 103.628 20.165 104.971 20.7332C106.315 21.295 107.5 22.0802 108.534 23.0825C109.538 24.0975 110.337 25.2786 110.93 26.6319C111.519 27.979 111.83 29.3962 111.855 30.8836C111.855 31.7519 111.579 32.4509 111.031 32.9776C110.48 33.4979 109.767 33.7564 108.889 33.7564H96.3127C96.8103 34.548 97.4442 35.1736 98.2143 35.6333C98.9908 36.0865 99.8307 36.31 100.737 36.31C101.295 36.31 101.754 36.2685 102.119 36.1823C102.48 36.0897 102.816 35.9493 103.12 35.761C103.685 35.3971 104.265 35.2119 104.857 35.2119C105.675 35.2119 106.379 35.5279 106.962 36.1568C107.519 36.7632 107.798 37.491 107.798 38.3401C107.798 39.4573 107.218 40.3446 106.062 41.0086C104.734 41.7746 102.959 42.1577 100.737 42.1577ZM96.1352 28.6876H105.669C105.244 27.7619 104.607 27.0277 103.754 26.4915C102.899 25.9489 101.932 25.6744 100.851 25.6744C99.7609 25.6744 98.8038 25.9521 97.9861 26.5043C97.1748 27.0501 96.5568 27.7779 96.1352 28.6876Z" fill="url(#paint4_linear_126_1027)"/>
<path d="M125.927 42.1704C124.431 42.1704 123.005 41.8863 121.655 41.315C120.302 40.7372 119.123 39.936 118.118 38.9146C117.104 37.8932 116.308 36.7026 115.735 35.3396C115.158 33.9798 114.873 32.5435 114.873 31.0368V16.2772C114.873 15.4281 115.177 14.7004 115.785 14.0939C116.055 13.813 116.372 13.596 116.736 13.4427C117.107 13.2831 117.5 13.2001 117.915 13.2001C118.321 13.2001 118.714 13.2831 119.094 13.4427C119.481 13.596 119.82 13.813 120.108 14.0939C120.394 14.3748 120.622 14.7068 120.793 15.0898C120.97 15.4728 121.059 15.8686 121.059 16.2772V19.201H128.019C128.425 19.201 128.808 19.284 129.173 19.4436C129.543 19.5968 129.873 19.8139 130.161 20.0948C130.44 20.3757 130.656 20.7045 130.808 21.0779C130.966 21.4546 131.049 21.844 131.049 22.2526C131.049 23.0442 130.751 23.7304 130.161 24.3082C129.559 24.8891 128.846 25.1764 128.019 25.1764H121.059V31.0879C121.059 32.5179 121.528 33.7053 122.466 34.6502C123.404 35.6205 124.558 36.1057 125.927 36.1057C127.227 36.1057 128.272 35.7482 129.058 35.0332C129.784 34.3533 130.545 34.0118 131.34 34.0118C131.676 34.0118 132.015 34.0852 132.355 34.2288C132.691 34.3756 132.982 34.5735 133.229 34.8289C133.787 35.4098 134.066 36.077 134.066 36.8335C134.066 37.3122 133.968 37.7783 133.774 38.2379C133.587 38.6912 133.321 39.0902 132.976 39.4381C132.038 40.351 130.973 41.0341 129.781 41.4937C128.589 41.9438 127.303 42.1704 125.927 42.1704Z" fill="url(#paint5_linear_126_1027)"/>
<path d="M150.825 41.9534C149.97 41.9534 149.26 41.6661 148.696 41.0851C148.417 40.8042 148.195 40.4851 148.036 40.1276C147.884 39.7637 147.808 39.3711 147.808 38.9529V14.7961C147.808 14.3875 147.884 13.9981 148.036 13.6215C148.195 13.248 148.417 12.9256 148.696 12.6511C149.279 12.0574 149.989 11.7574 150.825 11.7574H159.319C160.856 11.7574 162.314 12.0478 163.693 12.6256C165.078 13.2065 166.285 14.0141 167.318 15.0515C168.374 16.1176 169.185 17.3433 169.753 18.7286C170.317 20.1075 170.602 21.6365 170.602 23.3123C170.602 25.3807 170.076 27.2959 169.03 29.0578C167.99 30.8038 166.609 32.1476 164.884 33.0925L168.333 36.7441C168.906 37.3665 169.195 38.0815 169.195 38.8891C169.195 39.7158 168.89 40.4308 168.282 41.0341C167.68 41.6469 166.97 41.9534 166.152 41.9534C165.322 41.9534 164.647 41.6565 164.124 41.0596L157.887 34.5608H153.83V38.9529C153.83 39.3711 153.747 39.7637 153.589 40.1276C153.437 40.4851 153.221 40.8042 152.942 41.0851C152.375 41.6661 151.668 41.9534 150.825 41.9534ZM153.83 28.4833H159.408C160.083 28.4833 160.739 28.3428 161.373 28.0619C162.007 27.781 162.558 27.398 163.034 26.9128C163.515 26.4117 163.889 25.8531 164.162 25.2402C164.431 24.621 164.568 23.9762 164.568 23.3123C164.568 22.6069 164.428 21.8951 164.149 21.18C163.87 20.465 163.496 19.8745 163.034 19.4053C162.552 18.9201 161.988 18.5435 161.347 18.269C160.714 17.9881 160.067 17.8476 159.408 17.8476H153.83V28.4833Z" fill="#03071E"/>
<path d="M184.215 42.1577C182.719 42.1577 181.289 41.8704 179.93 41.2894C178.567 40.7117 177.375 39.9105 176.355 38.8891C175.322 37.8613 174.517 36.6739 173.933 35.3269C173.357 33.9735 173.071 32.5435 173.071 31.0369C173.071 29.5239 173.357 28.0843 173.933 26.7213C174.517 25.3615 175.322 24.1614 176.355 23.1208C177.375 22.0994 178.564 21.3046 179.917 20.7332C181.267 20.165 182.7 19.8777 184.215 19.8777C185.692 19.8777 187.105 20.165 188.449 20.7332C189.793 21.295 190.978 22.0802 192.011 23.0825C193.016 24.0975 193.815 25.2786 194.407 26.6319C194.997 27.979 195.307 29.3962 195.333 30.8836C195.333 31.7519 195.057 32.4509 194.509 32.9776C193.957 33.4979 193.244 33.7564 192.366 33.7564H179.79C180.288 34.548 180.922 35.1736 181.692 35.6333C182.468 36.0865 183.308 36.31 184.215 36.31C184.772 36.31 185.232 36.2685 185.596 36.1823C185.958 36.0897 186.294 35.9493 186.598 35.761C187.162 35.3971 187.742 35.2119 188.335 35.2119C189.152 35.2119 189.856 35.5279 190.439 36.1568C190.997 36.7632 191.276 37.491 191.276 38.3401C191.276 39.4573 190.696 40.3446 189.539 41.0086C188.211 41.7746 186.436 42.1577 184.215 42.1577ZM179.613 28.6876H189.146C188.721 27.7619 188.084 27.0277 187.232 26.4915C186.376 25.9489 185.409 25.6744 184.329 25.6744C183.238 25.6744 182.281 25.9521 181.464 26.5043C180.652 27.0501 180.034 27.7779 179.613 28.6876Z" fill="#03071E"/>
<path d="M209.049 41.9023H200.251C199.465 41.9023 198.809 41.615 198.286 41.0341C197.754 40.4563 197.488 39.7126 197.488 38.7997C197.488 37.906 197.741 37.191 198.248 36.6547C198.756 36.1121 199.421 35.8376 200.251 35.8376H208.365C208.726 35.8376 209.005 35.7705 209.202 35.6333C209.487 35.4481 209.633 35.1609 209.633 34.7778C209.633 34.3884 209.487 34.1139 209.202 33.9607C209.049 33.8681 208.761 33.8202 208.34 33.8202H204.65C203.677 33.8202 202.777 33.6287 201.95 33.2457C201.12 32.8563 200.404 32.32 199.795 31.6369C199.193 30.9475 198.724 30.175 198.388 29.3132C198.049 28.445 197.881 27.548 197.881 26.6192C197.881 25.719 198.058 24.854 198.413 24.0273C198.768 23.1942 199.253 22.476 199.871 21.8695C200.505 21.2503 201.228 20.7651 202.039 20.414C202.857 20.0565 203.728 19.8777 204.65 19.8777H211.674C212.536 19.8777 213.236 20.1299 213.778 20.6311C214.368 21.1865 214.666 21.9174 214.666 22.8271C214.666 23.7145 214.39 24.4486 213.842 25.036C213.604 25.3264 213.309 25.5531 212.954 25.7127C212.599 25.8754 212.231 25.9552 211.851 25.9552H204.765C204.536 25.9552 204.334 26.0414 204.156 26.2106C203.985 26.3734 203.903 26.5873 203.903 26.849C203.903 27.165 203.982 27.3916 204.143 27.5257C204.311 27.6629 204.502 27.73 204.714 27.73H208.834C209.804 27.73 210.713 27.9215 211.56 28.3045C212.403 28.6876 213.135 29.2206 213.753 29.9005C214.361 30.574 214.83 31.3433 215.16 32.2115C215.49 33.0733 215.654 33.9735 215.654 34.9183C215.654 35.8471 215.493 36.7281 215.173 37.5612C214.859 38.3879 214.412 39.1189 213.829 39.7573C213.22 40.4148 212.504 40.9288 211.686 41.3022C210.875 41.6693 209.994 41.8704 209.049 41.9023Z" fill="#03071E"/>
<path d="M229.5 42.1704C228.004 42.1704 226.578 41.8863 225.228 41.315C223.875 40.7372 222.696 39.936 221.691 38.9146C220.677 37.8932 219.882 36.7026 219.308 35.3396C218.731 33.9798 218.446 32.5435 218.446 31.0368V16.2772C218.446 15.4281 218.75 14.7004 219.359 14.0939C219.628 13.813 219.945 13.596 220.309 13.4427C220.68 13.2831 221.073 13.2001 221.488 13.2001C221.894 13.2001 222.287 13.2831 222.667 13.4427C223.054 13.596 223.393 13.813 223.682 14.0939C223.967 14.3748 224.195 14.7068 224.366 15.0898C224.544 15.4728 224.632 15.8686 224.632 16.2772V19.201H231.592C231.998 19.201 232.381 19.284 232.746 19.4436C233.117 19.5968 233.446 19.8139 233.735 20.0948C234.014 20.3757 234.229 20.7045 234.381 21.0779C234.54 21.4546 234.622 21.844 234.622 22.2526C234.622 23.0442 234.324 23.7304 233.735 24.3082C233.132 24.8891 232.419 25.1764 231.592 25.1764H224.632V31.0879C224.632 32.5179 225.101 33.7053 226.04 34.6502C226.978 35.6205 228.131 36.1057 229.5 36.1057C230.8 36.1057 231.846 35.7482 232.632 35.0332C233.357 34.3533 234.118 34.0118 234.914 34.0118C235.25 34.0118 235.589 34.0852 235.928 34.2288C236.264 34.3756 236.555 34.5735 236.803 34.8289C237.36 35.4098 237.639 36.077 237.639 36.8335C237.639 37.3122 237.541 37.7783 237.348 38.2379C237.161 38.6912 236.894 39.0902 236.549 39.4381C235.611 40.351 234.546 41.0341 233.354 41.4937C232.163 41.9438 230.876 42.1704 229.5 42.1704Z" fill="#03071E"/>
<path d="M264.126 41.9023C263.263 41.9023 262.544 41.615 261.97 41.0341C261.682 40.7628 261.454 40.4436 261.286 40.0765C261.124 39.7126 261.045 39.3232 261.045 38.9146V31.2411C261.086 29.7281 261.413 28.279 262.021 26.9001C262.636 25.5211 263.473 24.3082 264.531 23.2612C265.577 22.2238 266.781 21.4099 268.144 20.8226C269.513 20.2289 270.962 19.9129 272.493 19.8777H272.67C273.649 19.8777 274.413 20.1586 274.965 20.7204C275.513 21.2758 275.789 21.9972 275.789 22.891C275.789 23.7336 275.488 24.4582 274.889 25.0615C274.28 25.6424 273.538 25.9297 272.67 25.9297H272.531C271.795 25.9489 271.101 26.1021 270.451 26.3894C269.799 26.6798 269.225 27.0788 268.727 27.5895C268.211 28.1098 267.808 28.7067 267.523 29.377C267.235 30.0505 267.082 30.756 267.067 31.4965V38.9146C267.067 39.7828 266.781 40.4915 266.217 41.0341C265.64 41.615 264.943 41.9023 264.126 41.9023Z" fill="#03071E"/>
<path d="M288.438 42.1577C286.942 42.1577 285.512 41.8704 284.153 41.2894C282.79 40.7117 281.598 39.9105 280.578 38.8891C279.545 37.8613 278.74 36.6739 278.156 35.3269C277.58 33.9735 277.294 32.5435 277.294 31.0369C277.294 29.5239 277.58 28.0843 278.156 26.7213C278.74 25.3615 279.545 24.1614 280.578 23.1208C281.598 22.0994 282.787 21.3046 284.14 20.7332C285.49 20.165 286.923 19.8777 288.438 19.8777C289.915 19.8777 291.328 20.165 292.672 20.7332C294.016 21.295 295.201 22.0802 296.234 23.0825C297.239 24.0975 298.038 25.2786 298.63 26.6319C299.22 27.979 299.53 29.3962 299.556 30.8836C299.556 31.7519 299.28 32.4509 298.732 32.9776C298.18 33.4979 297.467 33.7564 296.589 33.7564H284.013C284.511 34.548 285.145 35.1736 285.915 35.6333C286.691 36.0865 287.531 36.31 288.438 36.31C288.996 36.31 289.455 36.2685 289.82 36.1823C290.181 36.0897 290.517 35.9493 290.821 35.761C291.385 35.3971 291.965 35.2119 292.558 35.2119C293.376 35.2119 294.079 35.5279 294.662 36.1568C295.22 36.7632 295.499 37.491 295.499 38.3401C295.499 39.4573 294.919 40.3446 293.762 41.0086C292.434 41.7746 290.659 42.1577 288.438 42.1577ZM283.836 28.6876H293.369C292.945 27.7619 292.308 27.0277 291.455 26.4915C290.599 25.9489 289.633 25.6744 288.552 25.6744C287.462 25.6744 286.504 25.9521 285.687 26.5043C284.875 27.0501 284.257 27.7779 283.836 28.6876Z" fill="#03071E"/>
<mask id="mask0_126_1027" style="mask-type:luminance" maskUnits="userSpaceOnUse" x="258" y="22" width="6" height="5">
<path d="M258.874 22.4915H263.359V26.5772H258.874V22.4915Z" fill="white"/>
</mask>
<g mask="url(#mask0_126_1027)">
<path d="M260.443 23.2799C260.161 23.2894 259.895 23.4778 259.79 23.7395C259.666 23.6565 259.492 23.6533 259.365 23.7331C259.235 23.8129 259.162 23.9725 259.185 24.1194C259.21 24.3205 259.406 24.4864 259.559 24.6013C259.438 24.6652 259.384 24.8184 259.41 24.9525C259.432 25.0865 259.517 25.2046 259.616 25.2972C259.739 25.4089 259.888 25.4983 260.053 25.5206C260.221 25.543 260.398 25.4919 260.509 25.3674C260.757 25.7983 261.384 25.9515 261.799 25.6834C262.053 25.8558 262.449 25.8494 262.718 25.7153C262.871 25.6419 263 25.5015 263.023 25.3355C263.045 25.1663 262.931 24.9812 262.763 24.9588C263.153 24.7801 263.343 24.2821 263.21 23.8768C263.077 23.4714 262.665 23.1873 262.237 23.1586C261.841 23.133 261.571 23.315 261.254 23.5161C261.048 23.6469 261.108 23.5991 260.921 23.449C260.785 23.3405 260.617 23.2767 260.443 23.2799Z" fill="#CCCCCC"/>
</g>
<mask id="mask1_126_1027" style="mask-type:luminance" maskUnits="userSpaceOnUse" x="241" y="14" width="5" height="5">
<path d="M241.835 14.3296H245.892V18.4057H241.835V14.3296Z" fill="white"/>
</mask>
<g mask="url(#mask1_126_1027)">
<path d="M242.181 17.8918C242.013 17.6078 241.911 17.2726 241.972 16.9502C242.032 16.6278 242.282 16.3278 242.609 16.2799C242.612 15.9352 242.726 15.584 242.96 15.3287C243.192 15.0765 243.556 14.9297 243.895 14.9967C243.813 14.8275 243.914 14.6233 244.06 14.5052C244.19 14.3966 244.361 14.3296 244.526 14.3679C244.691 14.4062 244.868 14.5594 244.834 14.7254C244.982 14.6488 245.154 14.6041 245.328 14.7254C245.648 14.9488 245.471 15.2776 245.471 15.2776C245.471 15.2776 245.765 15.5968 245.41 16.0182C245.274 16.1841 245.03 16.2288 244.814 16.2256C244.837 16.4108 244.856 16.6023 244.799 16.781C244.742 16.9566 244.589 17.1162 244.406 17.1258C244.536 17.3684 244.441 17.6875 244.244 17.8823C244.048 18.077 243.775 18.1727 243.506 18.2366C243.268 18.294 242.922 18.4025 242.682 18.3515C242.46 18.3036 242.289 18.0738 242.181 17.8918Z" fill="#CCCCCC"/>
</g>
<path d="M247.404 21.2913L247.61 21.9233L242.539 23.5735L242.333 22.9415C242.488 22.4532 242.526 21.8052 242.504 21.1508C242.501 21.0519 242.495 20.9497 242.491 20.8508C242.488 20.787 242.482 20.7263 242.479 20.6657C242.472 20.5635 242.463 20.4646 242.453 20.3656C242.447 20.2986 242.441 20.2284 242.434 20.1613C242.422 20.0592 242.412 19.9602 242.4 19.8645C242.292 18.9899 242.146 18.3164 242.146 18.3164C242.146 18.3164 242.846 18.1472 243.506 17.9333C244.162 17.7195 244.827 17.4418 244.827 17.4418C244.827 17.4418 245.109 18.0802 245.54 18.8526C245.588 18.9388 245.639 19.025 245.689 19.1112C245.721 19.1686 245.756 19.2293 245.794 19.2867C245.841 19.3729 245.895 19.4559 245.946 19.5421C245.981 19.5932 246.013 19.6474 246.047 19.6985C246.101 19.7815 246.155 19.8645 246.212 19.9475C246.58 20.4869 246.989 20.988 247.404 21.2913Z" fill="#999999"/>
<path d="M247.861 22.0382C247.886 22.0733 247.87 22.1212 247.832 22.1371C247.49 22.2616 246.032 22.7883 245.17 23.0692C244.244 23.3724 242.825 23.781 242.482 23.8767C242.444 23.8895 242.406 23.8576 242.403 23.8161L242.2 22.9798C242.197 22.9606 242.21 22.9447 242.226 22.9415C242.428 22.8936 247.268 21.3136 247.474 21.2306C247.49 21.2242 247.509 21.2306 247.521 21.2466L247.861 22.0382Z" fill="#999999"/>
<path d="M245.69 19.1112C245.221 19.3346 244.723 19.5229 244.248 19.6793C243.5 19.9219 242.818 20.0815 242.435 20.1613C242.422 20.0592 242.413 19.9602 242.4 19.8645C243.024 19.7304 244.393 19.3984 245.541 18.8526C245.588 18.9388 245.639 19.025 245.69 19.1112Z" fill="black"/>
<path d="M245.946 19.5421C245.452 19.7878 244.913 19.9921 244.406 20.1581C243.576 20.4294 242.831 20.5922 242.479 20.6656C242.473 20.5635 242.463 20.4645 242.454 20.3656C243.03 20.2443 244.561 19.8932 245.794 19.2867C245.842 19.3729 245.896 19.4559 245.946 19.5421Z" fill="black"/>
<path d="M246.212 19.9475C245.683 20.2188 245.103 20.4422 244.555 20.621C243.61 20.9274 242.771 21.0998 242.504 21.1508C242.501 21.0519 242.495 20.9498 242.492 20.8508C242.964 20.7582 244.707 20.3816 246.048 19.6985C246.102 19.7815 246.155 19.8645 246.212 19.9475Z" fill="black"/>
<path d="M243.617 17.9812C242.837 18.2334 242.216 18.3706 242.206 18.3738C242.168 18.3802 242.127 18.3578 242.121 18.3164C242.111 18.2749 242.137 18.2366 242.175 18.227C242.19 18.2238 243.55 17.9269 244.767 17.3875C244.805 17.3715 244.849 17.3875 244.865 17.4258C244.881 17.4641 244.865 17.5056 244.827 17.5216C244.422 17.7035 244 17.8567 243.617 17.9812Z" fill="#808080"/>
<path d="M257.581 15.8521C257.723 15.8266 257.879 15.8266 258.009 15.8936C258.139 15.9607 258.237 16.1011 258.227 16.2447C258.414 16.0373 258.69 15.9032 258.972 15.8872C259.251 15.8713 259.539 15.9702 259.752 16.1554C259.888 15.9926 260.103 15.9032 260.313 15.9224C260.522 15.9415 260.718 16.066 260.823 16.2479C261.004 16.0468 261.286 15.9447 261.555 15.983C261.821 16.0245 262.062 16.2064 262.176 16.4522C262.271 16.6693 262.249 16.9661 262.046 17.0874C262.005 17.1098 261.964 17.1257 261.926 17.1545C261.875 17.1928 261.843 17.2566 261.812 17.3109C261.653 17.5981 261.412 17.8439 261.115 17.978C260.817 18.112 260.455 18.1216 260.167 17.9716C259.768 17.7673 259.524 17.2949 259.089 17.1896C258.947 17.1576 258.791 17.164 258.658 17.1034C258.557 17.0555 258.471 16.9693 258.364 16.9406C258.173 16.8959 257.986 17.0332 257.793 17.0172C257.603 17.0012 257.533 16.947 257.254 16.8512C257.064 16.7874 256.522 16.9661 256.481 16.9885C256.513 16.8321 256.883 15.967 257.581 15.8521Z" fill="#E6E6E6"/>
<path d="M254.878 23.4235L252.548 22.4978L254.732 18.1025L254.811 17.9461L254.909 17.7482L254.989 17.5917L255.261 17.0395L256.653 17.5917L256.472 18.1855L256.421 18.3514L256.355 18.5653L256.307 18.7281L254.878 23.4235Z" fill="#999999"/>
<path d="M256.42 18.3515C256.202 18.2845 255.945 18.1951 255.663 18.0834C255.428 17.9876 255.172 17.8791 254.909 17.7482L254.988 17.5918C255.558 17.8727 256.078 18.061 256.471 18.1855L256.42 18.3515Z" fill="black"/>
<path d="M256.307 18.7282C256.082 18.6611 255.815 18.5686 255.517 18.4505C255.273 18.3547 255.007 18.2366 254.731 18.1025L254.811 17.9461C255.407 18.243 255.955 18.4377 256.354 18.5654L256.307 18.7282Z" fill="black"/>
<path d="M255.819 17.4322C255.495 17.3013 255.274 17.1928 255.258 17.1864C255.194 17.1545 255.169 17.0747 255.201 17.0108C255.232 16.947 255.308 16.9215 255.375 16.9534C255.378 16.9566 255.971 17.2471 256.63 17.4354C256.7 17.4577 256.741 17.5279 256.719 17.5982C256.7 17.6652 256.627 17.7067 256.56 17.6844C256.288 17.6077 256.031 17.5152 255.819 17.4322Z" fill="black"/>
<path d="M242.076 24.4258C241.962 24.1545 241.816 23.8161 241.734 23.6597C241.408 23.0405 240.935 22.3574 240.321 22.2137C240.203 22.185 240.08 22.1754 239.953 22.1627C239.864 22.1563 239.779 22.1499 239.69 22.1371C238.739 21.9967 237.934 21.1349 237.858 20.1773C237.852 20.107 237.902 20.0432 237.975 20.04C238.045 20.0336 238.108 20.0847 238.115 20.1581C238.184 21.0008 238.891 21.7573 239.728 21.8818C239.81 21.8914 239.893 21.9009 239.975 21.9073C240.105 21.9169 240.241 21.9297 240.378 21.9616C241.091 22.1276 241.541 22.7691 241.937 23.4107L242.431 24.2055C242.431 24.2055 242.165 24.6428 242.076 24.4258Z" fill="black"/>
<path d="M240.108 22.035C240.073 22.035 240.038 22.0126 240.023 21.9775C239.918 21.7477 239.87 21.4923 239.886 21.237C239.896 21.1284 239.915 21.0167 239.934 20.9082C239.975 20.6656 240.013 20.4358 239.921 20.2347C239.899 20.1868 239.921 20.1294 239.969 20.107C240.016 20.0847 240.076 20.107 240.099 20.1549C240.216 20.4071 240.168 20.6784 240.124 20.9401C240.105 21.0486 240.086 21.1508 240.08 21.2529C240.067 21.4732 240.105 21.6966 240.197 21.8977C240.219 21.9456 240.197 22.003 240.149 22.0254C240.137 22.0318 240.124 22.035 240.108 22.035Z" fill="black"/>
<path d="M240.843 22.3255C240.796 22.3255 240.755 22.2904 240.748 22.2425C240.713 21.9935 240.742 21.7413 240.831 21.5051C240.85 21.4573 240.907 21.4317 240.954 21.4509C241.005 21.47 241.03 21.5243 241.011 21.5754C240.935 21.7796 240.91 21.9999 240.938 22.2169C240.948 22.268 240.91 22.3159 240.856 22.3255C240.853 22.3255 240.85 22.3255 240.843 22.3255Z" fill="black"/>
<path d="M236.945 22.6032C236.876 22.6032 236.819 22.5489 236.816 22.4787C236.812 22.4085 236.869 22.3478 236.939 22.3446C237.652 22.3191 238.356 22.1116 238.968 21.7413C239.028 21.7062 239.107 21.7254 239.145 21.786C239.18 21.8467 239.161 21.9265 239.101 21.9648C238.451 22.3542 237.706 22.5744 236.949 22.6032H236.945Z" fill="black"/>
<path d="M239.294 23.9055C239.265 23.9055 239.24 23.8959 239.215 23.8799C239.158 23.8352 239.148 23.7523 239.192 23.698C239.658 23.0915 240.688 22.6 241.541 22.8617C241.607 22.884 241.645 22.9543 241.626 23.0245C241.604 23.0915 241.535 23.1298 241.465 23.1107C240.742 22.8872 239.81 23.315 239.395 23.8544C239.37 23.8895 239.332 23.9055 239.294 23.9055Z" fill="black"/>
<path d="M256.798 22.367C256.76 22.3638 256.722 22.3446 256.696 22.3095C256.154 21.5722 256.113 20.3656 256.604 19.6187L256.677 19.5101C256.814 19.3122 256.943 19.1239 256.899 18.942C256.88 18.8686 256.924 18.7951 256.997 18.776C257.07 18.7568 257.146 18.8015 257.165 18.8749C257.241 19.1782 257.061 19.4367 256.902 19.6666L256.833 19.7687C256.408 20.4167 256.446 21.5051 256.918 22.1467C256.962 22.2074 256.95 22.2935 256.89 22.3382C256.861 22.3606 256.829 22.367 256.798 22.367Z" fill="black"/>
<path d="M255.217 25.1631C255.166 25.2397 254.763 24.796 254.792 24.7577L255.217 25.1631Z" fill="black"/>
<path d="M254.792 24.7577C255.539 23.6756 256.36 22.6287 257.229 21.6424C257.317 21.5402 257.409 21.4253 257.504 21.3072C257.828 20.9114 258.192 20.4613 258.611 20.2507C259.213 19.9442 260.034 19.8708 260.598 19.8421C260.671 19.8389 260.737 19.8964 260.74 19.973C260.743 20.0496 260.686 20.1134 260.61 20.1166C260.072 20.1453 259.289 20.2156 258.734 20.4964C258.367 20.6816 258.024 21.1061 257.72 21.4796C257.619 21.6009 257.523 21.719 257.435 21.8211C256.598 22.7723 255.926 24.0874 255.216 25.1631" fill="black"/>
<path d="M259.758 22.7883C259.714 22.7851 259.669 22.7787 259.631 22.7755C259.21 22.7244 258.776 22.6734 258.361 22.5393C258.281 22.5138 258.202 22.4819 258.12 22.4531C257.765 22.3223 257.362 22.1722 256.991 22.3095C256.918 22.335 256.839 22.2999 256.814 22.2265C256.789 22.1563 256.823 22.0765 256.896 22.0509C257.362 21.8786 257.834 22.0541 258.215 22.1946C258.294 22.2233 258.37 22.252 258.446 22.2776C258.836 22.4053 259.254 22.4531 259.663 22.501C259.809 22.5202 259.977 22.5393 260.11 22.4851C260.183 22.4595 260.262 22.4914 260.291 22.5649C260.316 22.6351 260.284 22.7149 260.211 22.7404C260.062 22.8011 259.901 22.8011 259.758 22.7883Z" fill="black"/>
<path d="M258.227 23.7267C258.173 23.7235 258.132 23.6788 258.135 23.6246L258.164 22.434C258.167 22.3797 258.215 22.335 258.272 22.335C258.329 22.3382 258.373 22.3829 258.37 22.4404L258.341 23.6278C258.338 23.6852 258.291 23.7299 258.234 23.7299C258.234 23.7299 258.231 23.7267 258.227 23.7267Z" fill="black"/>
<path d="M257.641 21.4796C257.6 21.4764 257.559 21.454 257.536 21.4189C257.495 21.3519 257.514 21.2689 257.578 21.2274C258.205 20.8316 258.994 21.0103 259.571 21.1412C259.638 21.1572 259.704 21.1731 259.768 21.1923C259.926 21.2306 260.078 21.2689 260.23 21.2848C260.465 21.3168 260.665 21.2848 260.82 21.2019C260.886 21.1667 260.969 21.1891 261.007 21.2561C261.042 21.3232 261.016 21.4061 260.95 21.4413C260.747 21.5562 260.497 21.5945 260.199 21.5594C260.028 21.537 259.863 21.4955 259.701 21.4572C259.638 21.4413 259.574 21.4253 259.511 21.4093C258.982 21.288 258.256 21.1252 257.727 21.4604C257.698 21.4764 257.67 21.4827 257.641 21.4796Z" fill="black"/>
<path d="M259.508 21.9233C259.482 21.9201 259.457 21.9073 259.438 21.8818C259.318 21.7318 259.242 21.5402 259.226 21.3487C259.219 21.2913 259.261 21.2402 259.318 21.237C259.378 21.2306 259.425 21.2721 259.429 21.3296C259.444 21.4828 259.505 21.636 259.6 21.7573C259.635 21.802 259.628 21.8658 259.581 21.9009C259.562 21.9169 259.533 21.9233 259.508 21.9233Z" fill="black"/>
<path d="M258.25 20.6784C258.199 20.6752 258.158 20.6337 258.155 20.5795C258.133 20.0113 258.107 19.3633 258.294 18.7728C258.313 18.7185 258.37 18.6898 258.424 18.7058C258.478 18.7249 258.51 18.7824 258.491 18.8366C258.313 19.392 258.339 19.9921 258.361 20.5731C258.364 20.6273 258.32 20.6752 258.263 20.6784C258.256 20.6784 258.253 20.6784 258.25 20.6784Z" fill="black"/>
<path d="M256.484 21.2849C256.459 21.2817 256.437 21.2721 256.418 21.2529C256.38 21.2114 256.38 21.1476 256.421 21.1061C256.624 20.9082 256.817 20.6943 256.995 20.4709C257.029 20.4262 257.093 20.4198 257.14 20.4549C257.185 20.4901 257.191 20.5539 257.156 20.5986C256.972 20.8284 256.776 21.0487 256.564 21.2561C256.541 21.2753 256.513 21.2849 256.484 21.2849Z" fill="black"/>
<path d="M256.294 21.0263C256.281 21.0263 256.269 21.0199 256.256 21.0136C256.047 20.9018 255.825 20.8157 255.597 20.755C255.543 20.7391 255.511 20.6848 255.524 20.6305C255.54 20.5731 255.597 20.5411 255.651 20.5571C255.895 20.6209 256.129 20.7135 256.351 20.8316C256.402 20.8603 256.421 20.921 256.395 20.9721C256.373 21.0104 256.335 21.0295 256.294 21.0263Z" fill="black"/>
<path d="M259.273 20.222C259.248 20.222 259.219 20.2092 259.203 20.1868C259.165 20.1422 259.175 20.0751 259.219 20.04C259.397 19.8964 259.485 19.6602 259.565 19.4527C259.603 19.3537 259.638 19.2612 259.679 19.1878C259.707 19.1367 259.771 19.1175 259.818 19.1463C259.869 19.175 259.888 19.2356 259.859 19.2867C259.825 19.3474 259.793 19.4335 259.758 19.5261C259.672 19.7464 259.568 20.0241 259.346 20.2028C259.327 20.2188 259.298 20.2252 259.273 20.222Z" fill="black"/>
<mask id="mask2_126_1027" style="mask-type:luminance" maskUnits="userSpaceOnUse" x="234" y="22" width="3" height="3">
<path d="M234.15 22.4915H236.156V24.1257H234.15V22.4915Z" fill="white"/>
</mask>
<g mask="url(#mask2_126_1027)">
<path d="M234.892 23.2671C234.771 23.2001 234.619 23.216 234.499 23.2831C234.299 23.3948 234.163 23.5671 234.245 23.7682C234.321 23.9629 234.635 23.9789 234.721 23.8895C234.749 23.9693 234.816 24.0396 234.895 24.0715C235.076 24.1449 235.288 24.03 235.383 23.8736C235.392 23.8576 235.402 23.8417 235.415 23.8321C235.437 23.8161 235.469 23.8193 235.497 23.8225C235.589 23.8353 235.687 23.8417 235.776 23.8097C235.868 23.7778 235.947 23.7076 235.963 23.6118C235.979 23.5193 235.912 23.4171 235.814 23.4107C235.934 23.2926 235.915 23.1809 235.852 23.133C235.757 23.0596 235.608 23.0692 235.5 23.1394C235.44 23.0117 235.285 22.9351 235.145 22.9639C235.006 22.9926 234.895 23.1235 234.892 23.2671Z" fill="#999999"/>
</g>
<path d="M240.007 18.594C239.886 18.5302 239.731 18.543 239.614 18.61C239.414 18.7217 239.278 18.8941 239.357 19.0984C239.436 19.2899 239.75 19.3058 239.832 19.2165C239.864 19.2994 239.927 19.3665 240.01 19.3984C240.19 19.4718 240.4 19.3569 240.495 19.2005C240.504 19.1877 240.514 19.1686 240.53 19.159C240.552 19.143 240.583 19.1494 240.609 19.1526C240.704 19.1622 240.802 19.1686 240.891 19.1367C240.98 19.1079 241.062 19.0345 241.078 18.9388C241.091 18.8462 241.027 18.744 240.926 18.7377C241.049 18.6196 241.03 18.511 240.967 18.46C240.872 18.3865 240.72 18.3961 240.615 18.4695C240.555 18.3387 240.4 18.2621 240.26 18.2908C240.121 18.3195 240.01 18.4504 240.007 18.594Z" fill="#999999"/>
<path d="M253.461 16.0437C253.369 15.9415 253.22 15.9032 253.087 15.9256C252.862 15.9639 252.675 16.082 252.684 16.299C252.691 16.5097 252.982 16.6278 253.093 16.5704C253.093 16.6597 253.131 16.7459 253.198 16.8034C253.344 16.9311 253.578 16.8927 253.721 16.7778C253.737 16.7683 253.749 16.7555 253.768 16.7491C253.794 16.7427 253.822 16.7555 253.844 16.7683C253.93 16.8129 254.022 16.8481 254.114 16.8513C254.209 16.8513 254.31 16.8098 254.358 16.7268C254.402 16.6438 254.377 16.5257 254.282 16.4842C254.437 16.414 254.456 16.3054 254.412 16.2384C254.348 16.1363 254.203 16.0948 254.079 16.1267C254.063 15.9862 253.946 15.8617 253.803 15.8426C253.664 15.8234 253.515 15.9096 253.461 16.0437Z" fill="#999999"/>
<path d="M237.072 23.8097C236.913 23.7236 236.711 23.7459 236.552 23.8321C236.289 23.9789 236.105 24.2087 236.213 24.4769C236.318 24.7322 236.733 24.7546 236.844 24.6365C236.885 24.7418 236.97 24.8344 237.078 24.8759C237.316 24.9748 237.595 24.8216 237.722 24.6141C237.734 24.595 237.747 24.5726 237.766 24.5598C237.794 24.5407 237.836 24.5439 237.871 24.5503C237.997 24.5662 238.127 24.5726 238.245 24.5311C238.365 24.4896 238.47 24.3939 238.492 24.2694C238.511 24.1449 238.425 24.0076 238.292 24.0013C238.454 23.8448 238.428 23.698 238.346 23.6342C238.219 23.5384 238.02 23.548 237.877 23.6438C237.798 23.4746 237.595 23.3724 237.408 23.4107C237.224 23.4459 237.078 23.6214 237.072 23.8097Z" fill="#999999"/>
<mask id="mask3_126_1027" style="mask-type:luminance" maskUnits="userSpaceOnUse" x="247" y="14" width="4" height="9">
<path d="M247.515 14.3296H250.761V22.4914H247.515V14.3296Z" fill="white"/>
</mask>
<g mask="url(#mask3_126_1027)">
<path d="M250 21.7732C250.33 20.6497 250.418 19.6634 250.273 18.7664C250.247 18.6036 250.206 18.393 250.111 18.2078C249.94 17.8663 249.62 17.6365 249.284 17.3907C248.929 17.1321 248.561 16.8672 248.365 16.4586C248.136 15.9798 248.216 15.3638 248.561 14.9584C248.609 14.9041 248.691 14.9009 248.745 14.9456C248.799 14.9935 248.805 15.0733 248.758 15.1276C248.476 15.4564 248.412 15.9575 248.599 16.3469C248.764 16.6948 249.09 16.931 249.433 17.18C249.781 17.4354 250.143 17.6939 250.342 18.0929C250.45 18.3068 250.498 18.543 250.529 18.7249C250.678 19.6506 250.757 20.7359 250.456 21.8945C250.428 22.0063 249.971 21.869 250 21.7732Z" fill="black"/>
</g>
<path d="M248.076 16.8257C247.708 16.8257 247.341 16.714 247.037 16.5002C246.98 16.4587 246.967 16.3789 247.008 16.3214C247.049 16.2639 247.129 16.248 247.189 16.2895C247.553 16.548 248.032 16.6342 248.463 16.5193C248.533 16.5002 248.602 16.5416 248.621 16.6087C248.64 16.6789 248.599 16.7491 248.529 16.7683C248.38 16.8066 248.228 16.8257 248.076 16.8257Z" fill="black"/>
<path d="M250.437 20.2826C250.393 20.2826 250.348 20.2571 250.326 20.2156L250.222 20.024C250.076 19.7591 249.911 19.4591 249.768 19.2452C249.714 19.1622 249.667 19.092 249.604 19.0505C249.505 18.9867 249.359 18.9835 249.22 18.9803C248.589 18.9675 248.114 18.8749 247.715 18.6866C247.188 18.444 246.808 18.0291 246.669 17.5535C246.65 17.4832 246.691 17.413 246.757 17.3939C246.827 17.3715 246.897 17.413 246.919 17.48C247.036 17.8854 247.366 18.2397 247.822 18.4536C248.19 18.6228 248.631 18.7089 249.211 18.7217C249.394 18.7249 249.584 18.7281 249.746 18.8366C249.857 18.91 249.93 19.0218 249.984 19.1016C250.133 19.325 250.301 19.6314 250.45 19.9027L250.551 20.0911C250.586 20.1517 250.564 20.2315 250.5 20.2666C250.481 20.2762 250.459 20.2826 250.437 20.2826Z" fill="black"/>
<path d="M249.797 17.6971C249.727 17.6971 249.667 17.6429 249.667 17.5726C249.658 16.9087 250.044 16.2512 250.627 15.9383C250.881 15.8043 251.154 15.7341 251.417 15.6638C251.486 15.6479 251.556 15.6894 251.575 15.7596C251.591 15.8266 251.55 15.8969 251.483 15.916C251.233 15.9798 250.973 16.0469 250.751 16.165C250.247 16.4363 249.918 16.9981 249.927 17.5662C249.927 17.6397 249.87 17.6971 249.797 17.6971Z" fill="black"/>
<path d="M250.539 19.1526C250.482 19.1526 250.431 19.1175 250.415 19.0601C250.396 18.9931 250.434 18.9196 250.501 18.9005C250.773 18.8175 251.046 18.7313 251.315 18.6451C251.436 18.6036 251.572 18.5589 251.683 18.4887C251.819 18.3962 251.924 18.2589 252.035 18.077C252.161 17.8759 252.279 17.662 252.266 17.4418C252.263 17.3715 252.317 17.3109 252.386 17.3045C252.456 17.3013 252.519 17.3556 252.523 17.429C252.538 17.7195 252.405 17.978 252.253 18.2174C252.142 18.3962 252.009 18.5781 251.825 18.7026C251.686 18.7951 251.527 18.8462 251.398 18.8909C251.125 18.9771 250.849 19.0633 250.577 19.1463C250.564 19.1526 250.551 19.1526 250.539 19.1526Z" fill="black"/>
<path d="M250.212 20.4741C249.904 20.5379 249.581 20.4549 249.252 20.356C248.897 20.2475 248.554 20.1613 248.266 20.289C248.202 20.3177 248.126 20.289 248.098 20.2251C248.066 20.1581 248.098 20.0815 248.161 20.0528C248.557 19.8772 249.02 20.0145 249.324 20.107C249.683 20.2155 250.028 20.3017 250.31 20.174C250.377 20.1453 250.453 20.1772 250.481 20.2411C250.51 20.3081 250.481 20.3847 250.415 20.4134C250.348 20.4422 250.282 20.4613 250.212 20.4741Z" fill="black"/>
<path d="M250.437 20.3752C250.406 20.3752 250.374 20.3656 250.348 20.3401C250.298 20.289 250.298 20.206 250.345 20.1581C250.681 19.8166 251.09 19.7783 251.451 19.7464C251.578 19.7368 251.699 19.724 251.81 19.7017C251.882 19.6857 251.949 19.7304 251.965 19.8006C251.978 19.8709 251.933 19.9411 251.863 19.9538C251.74 19.9794 251.604 19.9921 251.477 20.0049C251.144 20.0336 250.799 20.0656 250.529 20.3369C250.507 20.3624 250.472 20.3752 250.437 20.3752Z" fill="black"/>
<path d="M248.532 18.8462C248.501 18.8462 248.472 18.8335 248.453 18.8079C248.234 18.5111 248.082 18.16 248.022 17.7961C248.013 17.745 248.047 17.6939 248.101 17.6844C248.152 17.678 248.203 17.7099 248.212 17.7642C248.269 18.0993 248.406 18.4217 248.608 18.693C248.64 18.7377 248.631 18.7984 248.589 18.8271C248.57 18.843 248.551 18.8462 248.532 18.8462Z" fill="black"/>
<path d="M251.625 18.677C251.587 18.677 251.552 18.6547 251.537 18.6164L251.121 17.6492C251.099 17.6013 251.121 17.5439 251.172 17.5215C251.22 17.5024 251.277 17.5247 251.299 17.5726L251.714 18.5398C251.736 18.5909 251.714 18.6451 251.663 18.6675C251.651 18.6738 251.638 18.677 251.625 18.677Z" fill="black"/>
<path d="M248.966 19.9825C249.023 19.9666 249.09 19.9953 249.115 20.0464C249.15 20.056 249.185 20.0655 249.217 20.0751C249.22 19.9857 249.163 19.8932 249.077 19.8581C248.966 19.8166 248.855 19.8836 248.754 19.9794C248.811 19.9825 248.868 19.9921 248.922 20.0017C248.938 19.9953 248.95 19.9857 248.966 19.9825Z" fill="#CCCCCC"/>
<path d="M248.716 20.2315C248.757 20.1454 248.814 20.0815 248.894 20.0241C248.903 20.0177 248.913 20.0081 248.922 20.0017C248.868 19.9921 248.811 19.9826 248.754 19.9794C248.672 20.056 248.596 20.1517 248.532 20.2283C248.592 20.2252 248.653 20.2252 248.716 20.2315Z" fill="#CCCCCC"/>
<mask id="mask4_126_1027" style="mask-type:luminance" maskUnits="userSpaceOnUse" x="238" y="21" width="22" height="23">
<path d="M238.168 21.4987H259.882V43.1339H238.168V21.4987Z" fill="white"/>
</mask>
<g mask="url(#mask4_126_1027)">
<path d="M259.834 32.3355C259.834 37.0883 256.76 41.1261 252.494 42.5689C252.326 42.6264 252.158 42.6806 251.983 42.7285C251.92 42.7445 251.853 42.7636 251.79 42.7796C251.711 42.8019 251.635 42.8179 251.559 42.837C251.479 42.8562 251.403 42.8721 251.324 42.8913C251.245 42.9072 251.169 42.9232 251.09 42.9392C250.424 43.07 249.733 43.1371 249.026 43.1371C248.342 43.1371 247.67 43.0732 247.017 42.9487C246.862 42.92 246.703 42.8881 246.548 42.853C245.531 42.6104 244.567 42.2274 243.68 41.723C243.673 41.7166 243.661 41.7103 243.651 41.7039C241.284 40.3473 239.48 38.1161 238.682 35.4508C238.406 34.5443 238.248 33.5867 238.229 32.5972C238.222 32.5078 238.222 32.4216 238.222 32.3355C238.222 31.7705 238.267 31.2119 238.349 30.6724V30.6692C238.362 30.5863 238.374 30.5033 238.39 30.4235C238.438 30.1553 238.495 29.8936 238.561 29.6351C238.628 29.3765 238.704 29.1211 238.789 28.869C238.818 28.786 238.85 28.703 238.878 28.62C238.91 28.537 238.942 28.454 238.973 28.371C239.141 27.9465 239.335 27.5315 239.556 27.1357C239.588 27.0751 239.62 27.0176 239.655 26.957C239.69 26.8932 239.728 26.8325 239.762 26.7719C239.959 26.4399 240.178 26.1207 240.409 25.8143C240.45 25.7664 240.488 25.7153 240.526 25.6642C240.846 25.2557 241.198 24.8695 241.572 24.512C241.636 24.4545 241.699 24.397 241.762 24.3364C241.826 24.2789 241.889 24.2215 241.956 24.164L241.962 24.1576C242.025 24.1066 242.089 24.0523 242.155 23.998C242.222 23.9406 242.288 23.8863 242.358 23.8353C242.494 23.7267 242.631 23.6246 242.773 23.5224C242.843 23.4746 242.916 23.4267 242.989 23.3756C243.059 23.3277 243.131 23.2799 243.204 23.232C243.274 23.1873 243.347 23.1426 243.42 23.0979C243.442 23.0819 243.464 23.0692 243.486 23.0564C243.616 22.9798 243.746 22.9064 243.876 22.8362C244.028 22.7532 244.184 22.6702 244.342 22.5968C244.421 22.5585 244.501 22.5202 244.58 22.4851C244.875 22.3542 245.173 22.2329 245.477 22.1276C245.534 22.1084 245.588 22.0892 245.645 22.0701C245.699 22.0509 245.756 22.035 245.816 22.0158C245.898 21.9903 245.984 21.9648 246.069 21.9392C246.133 21.9233 246.196 21.9073 246.26 21.8913C246.367 21.8594 246.475 21.8339 246.586 21.8084C246.675 21.7892 246.764 21.7669 246.852 21.7509C246.916 21.7349 246.985 21.7222 247.052 21.7126C247.131 21.6966 247.21 21.6839 247.293 21.6711C247.356 21.6583 247.42 21.6488 247.483 21.6424C247.683 21.6105 247.882 21.5913 248.085 21.5722C248.145 21.5658 248.209 21.5626 248.275 21.5562C248.358 21.5498 248.44 21.5466 248.522 21.5402C248.694 21.5338 248.858 21.5307 249.026 21.5307C249.308 21.5307 249.584 21.5402 249.86 21.5626C250.091 21.5817 250.326 21.6041 250.554 21.6392C250.573 21.6392 250.586 21.6424 250.605 21.6456C250.877 21.6871 251.147 21.7349 251.413 21.7956C251.647 21.8499 251.879 21.9073 252.104 21.9743C253.663 22.4372 255.073 23.2415 256.249 24.2981C256.31 24.3492 256.367 24.4034 256.424 24.4577C256.772 24.7833 257.096 25.1344 257.4 25.5047C257.447 25.5653 257.495 25.6228 257.542 25.6802C258.975 27.5124 259.834 29.8234 259.834 32.3355Z" fill="#7ED957"/>
</g>
<path d="M256.424 24.4577C256.38 24.6971 256.256 24.9205 256.031 25.0897C255.479 25.511 254.69 25.3323 254.094 25.6387C253.809 25.7855 253.641 26.0728 253.397 26.2835C253.137 26.5069 252.846 26.6984 252.535 26.8421C251.949 27.1166 251.21 27.2028 250.817 26.5835C250.542 26.1462 250.783 25.5781 250.976 25.1599C251.324 24.4162 251.629 23.6852 251.48 22.8425C251.439 22.6223 251.375 22.4052 251.363 22.185C251.356 22.0541 251.369 21.9169 251.413 21.7956C251.648 21.8498 251.879 21.9073 252.104 21.9743C253.663 22.4372 255.074 23.2383 256.25 24.2981C256.31 24.3491 256.367 24.4002 256.424 24.4577Z" fill="#FBB731"/>
<mask id="mask5_126_1027" style="mask-type:luminance" maskUnits="userSpaceOnUse" x="237" y="20" width="14" height="24">
<path d="M237.779 20.8571H250.76V43.1339H237.779V20.8571Z" fill="white"/>
</mask>
<g mask="url(#mask5_126_1027)">
<path d="M250.605 21.6424C250.612 21.8371 250.564 22.0318 250.466 22.1946C250.216 22.5968 249.737 22.8042 249.268 22.8936C248.802 22.9798 248.32 22.9702 247.854 23.0596C247.661 23.1011 247.449 23.1745 247.373 23.3565C247.293 23.5576 247.439 23.7906 247.623 23.8991C247.813 24.0108 248.035 24.0427 248.238 24.113C249.021 24.3811 249.496 25.3227 249.252 26.1111C249.049 26.7751 248.447 27.2315 247.861 27.605C247.113 28.0838 246.311 28.5179 245.436 28.6519C244.777 28.7477 244.073 28.6807 243.474 28.9711C243.354 29.0286 243.237 29.1052 243.183 29.2265C243.132 29.3414 243.151 29.4755 243.138 29.5999C243.091 30.0947 242.451 30.4203 242.023 30.1681C241.836 30.0564 241.687 29.8585 241.468 29.8361C241.297 29.8138 241.132 29.9096 240.986 30.0085C240.638 30.2288 240.267 30.4809 240.147 30.8735C239.96 31.48 240.492 32.1088 241.097 32.294C241.703 32.4823 242.352 32.361 242.98 32.3067C243.693 32.2429 244.327 32.2588 244.666 32.9802C244.831 33.3218 244.904 33.7016 245.075 34.04C245.281 34.4422 245.633 34.7677 246.051 34.9401C246.352 35.0678 246.679 35.1157 246.986 35.221C248.098 35.6072 248.986 36.9893 248.888 38.1576C248.869 38.4002 248.812 38.646 248.691 38.8566C248.311 39.5142 247.458 39.8334 247.198 40.5707C246.929 41.3368 247.366 42.205 247.018 42.9487C246.862 42.92 246.704 42.8881 246.549 42.8498C245.531 42.6104 244.568 42.2274 243.68 41.723C243.674 41.7166 243.661 41.7103 243.652 41.7039C243.474 41.1166 243.386 40.4813 243.196 39.9196C242.875 38.9779 242.435 37.9788 241.795 37.2064C241.164 36.4467 240.296 35.7094 240.305 34.7199C240.308 34.2762 240.492 33.8197 240.343 33.4048C240.22 33.0632 239.903 32.843 239.63 32.6068C239.037 32.0929 238.597 31.4162 238.35 30.6724V30.6692C238.362 30.5863 238.375 30.5033 238.391 30.4203C238.438 30.1553 238.495 29.8936 238.562 29.6351C238.629 29.3733 238.705 29.1211 238.79 28.869C238.819 28.786 238.85 28.6998 238.879 28.6168C238.911 28.5338 238.939 28.454 238.974 28.371C239.142 27.9433 239.335 27.5315 239.557 27.1326C239.589 27.0751 239.621 27.0145 239.655 26.957C239.69 26.8932 239.728 26.8325 239.763 26.7719C239.96 26.4399 240.178 26.1207 240.41 25.8143C240.451 25.7632 240.489 25.7153 240.527 25.6642C240.847 25.2557 241.199 24.8695 241.573 24.512C241.636 24.4545 241.7 24.3938 241.763 24.3364C241.826 24.2789 241.89 24.2215 241.956 24.164L241.963 24.1576C242.026 24.1066 242.089 24.0491 242.156 23.9949C242.223 23.9406 242.289 23.8863 242.359 23.8353C242.495 23.7267 242.631 23.6246 242.774 23.5224C242.844 23.4714 242.917 23.4235 242.99 23.3756C243.059 23.3277 243.132 23.2799 243.205 23.232C243.275 23.1873 243.348 23.1426 243.421 23.0947C243.443 23.0819 243.465 23.0692 243.487 23.0564C243.617 22.9798 243.747 22.9064 243.877 22.833C244.029 22.75 244.184 22.6702 244.343 22.5968C244.422 22.5585 244.501 22.5202 244.581 22.4851C244.875 22.351 245.173 22.2329 245.477 22.1276C245.531 22.1084 245.588 22.0892 245.645 22.0701C245.699 22.0509 245.756 22.035 245.817 22.0158C245.899 21.9903 245.985 21.9648 246.07 21.9392C246.133 21.9233 246.197 21.9041 246.26 21.8913C246.368 21.8594 246.476 21.8339 246.587 21.8084C246.675 21.786 246.764 21.7669 246.853 21.7509C246.916 21.7349 246.986 21.7222 247.053 21.7126C247.132 21.6966 247.211 21.6839 247.293 21.6711C247.357 21.6583 247.42 21.6488 247.484 21.6424C247.683 21.6105 247.88 21.5881 248.086 21.5722C248.146 21.5658 248.209 21.5594 248.276 21.5562C248.358 21.5498 248.441 21.5466 248.523 21.5402C248.691 21.5338 248.859 21.5307 249.027 21.5307C249.309 21.5307 249.585 21.5402 249.861 21.5626C250.092 21.5817 250.326 21.6041 250.555 21.636C250.574 21.6392 250.586 21.6424 250.605 21.6424Z" fill="#FBB731"/>
</g>
<mask id="mask6_126_1027" style="mask-type:luminance" maskUnits="userSpaceOnUse" x="249" y="24" width="12" height="20">
<path d="M249.949 24.9429H260.497V43.1339H249.949V24.9429Z" fill="white"/>
</mask>
<g mask="url(#mask6_126_1027)">
<path d="M259.834 32.3355C259.834 32.377 259.834 32.4185 259.831 32.46V32.4632C259.822 33.408 259.689 34.3209 259.451 35.1923C258.503 38.6556 255.873 41.4262 252.494 42.5689C252.326 42.6264 252.158 42.6806 251.984 42.7285C251.921 42.7445 251.854 42.7636 251.791 42.7796C251.711 42.8019 251.635 42.8179 251.559 42.837C251.48 42.8562 251.404 42.8722 251.325 42.8913C251.245 42.9073 251.169 42.9232 251.09 42.9392C251.35 42.3455 251.708 41.822 252.257 41.49C252.58 41.2985 252.941 41.1868 253.271 41.0112C254.272 40.4718 254.51 39.6515 254.691 38.63C254.729 38.4002 254.741 38.1161 254.542 38.0012C254.234 37.8288 253.626 38.1832 253.283 38.2023C252.821 38.2278 252.333 38.0906 251.936 37.8608C251.287 37.4841 250.818 36.8106 250.691 36.0701C250.551 35.237 250.846 34.3783 251.344 33.7112C251.857 33.0281 252.637 32.9068 253.382 32.543C254.263 32.112 255.299 31.7896 256.199 32.3195C256.846 32.6994 257.556 33.392 258.351 33.4367C258.69 33.4559 259.071 33.242 259.109 32.9036C259.166 32.3834 258.627 32.1152 258.297 31.8311C257.892 31.4832 257.499 31.1066 257.011 30.8799C256.465 30.6278 255.781 30.6948 255.312 30.283C254.992 30.0022 254.738 29.5042 254.957 29.0956C255.153 28.7349 255.645 28.6551 255.838 28.2976C256.028 27.9369 255.654 27.5986 255.505 27.3081C255.194 26.708 255.603 25.9292 256.215 25.6451C256.586 25.4759 256.995 25.4472 257.4 25.5047C257.448 25.5653 257.495 25.6228 257.543 25.6802C258.975 27.5124 259.834 29.8234 259.834 32.3355Z" fill="#FBB731"/>
</g>
<path d="M243.772 29.7787C243.724 29.7787 243.674 29.7563 243.642 29.7148C243.496 29.5233 243.363 29.3222 243.249 29.1116C243.205 29.0318 243.233 28.9328 243.312 28.8881C243.392 28.8466 243.49 28.8754 243.534 28.9551C243.642 29.1499 243.766 29.3382 243.902 29.5169C243.959 29.5904 243.943 29.6925 243.873 29.7468C243.842 29.7691 243.807 29.7787 243.772 29.7787Z" fill="black"/>
<path d="M244.422 29.4052C244.352 29.4052 244.288 29.3637 244.266 29.2935C244.193 29.0637 244.136 28.8275 244.098 28.5913C244.082 28.5019 244.143 28.4189 244.231 28.4029C244.32 28.3902 244.406 28.4508 244.422 28.5402C244.456 28.7604 244.51 28.9807 244.577 29.1914C244.605 29.2775 244.558 29.3701 244.472 29.3988C244.456 29.4052 244.441 29.4052 244.422 29.4052Z" fill="black"/>
<path d="M246.076 29.3318C246.061 29.3318 246.042 29.3286 246.026 29.3222C245.94 29.2967 245.893 29.2041 245.918 29.1179C245.991 28.8913 246.08 28.6647 246.187 28.4476C246.225 28.3678 246.324 28.3327 246.406 28.3742C246.485 28.4125 246.52 28.5115 246.482 28.5913C246.384 28.7924 246.298 29.003 246.232 29.2169C246.21 29.2871 246.146 29.3318 246.076 29.3318Z" fill="black"/>
<path d="M245.3 28.2083C245.303 28.2083 245.303 28.2083 245.303 28.2083C245.395 28.2115 245.465 28.2849 245.465 28.3742C245.461 28.553 245.465 29.2074 245.465 29.2074H245.138C245.138 29.2074 245.135 28.5498 245.138 28.3711C245.138 28.2817 245.211 28.2083 245.3 28.2083Z" fill="black"/>
<path d="M246.615 29.7532C246.583 29.7532 246.555 29.7468 246.526 29.7276C246.45 29.6797 246.428 29.5776 246.478 29.501L246.875 28.8913C246.922 28.8147 247.024 28.7924 247.1 28.8434C247.176 28.8913 247.198 28.9935 247.147 29.0701L246.751 29.6797C246.719 29.7276 246.669 29.7532 246.615 29.7532Z" fill="black"/>
<path d="M254.187 29.8362C254.152 29.8362 254.117 29.8234 254.088 29.801C254.015 29.7468 254.003 29.6446 254.057 29.5712C254.193 29.3957 254.316 29.2041 254.424 29.0094C254.469 28.9296 254.567 28.9009 254.646 28.9456C254.725 28.9871 254.754 29.0892 254.709 29.1658C254.595 29.3765 254.462 29.5808 254.316 29.7723C254.285 29.8138 254.234 29.8362 254.187 29.8362Z" fill="black"/>
<path d="M253.597 29.4052C253.581 29.4052 253.562 29.4052 253.546 29.3988C253.46 29.3701 253.413 29.2775 253.441 29.1914C253.508 28.9807 253.562 28.7604 253.597 28.5402C253.613 28.4508 253.698 28.3902 253.787 28.4029C253.876 28.4189 253.936 28.5019 253.92 28.5913C253.882 28.8275 253.825 29.0637 253.752 29.2935C253.73 29.3637 253.666 29.4052 253.597 29.4052Z" fill="black"/>
<path d="M251.943 29.3318C251.876 29.3318 251.81 29.2871 251.788 29.2169C251.721 29.003 251.639 28.7924 251.54 28.5913C251.499 28.5115 251.534 28.4125 251.613 28.3742C251.696 28.3327 251.794 28.3678 251.832 28.4476C251.94 28.6647 252.028 28.8881 252.101 29.1179C252.127 29.2041 252.079 29.2967 251.994 29.3222C251.978 29.3286 251.962 29.3318 251.943 29.3318Z" fill="black"/>
<path d="M252.909 28.2083C252.998 28.2146 253.068 28.2881 253.064 28.3774C253.055 28.5562 253.017 29.2169 253.017 29.2169L252.69 29.1946C252.69 29.1946 252.728 28.5434 252.735 28.3679C252.738 28.2753 252.814 28.2051 252.906 28.2083C252.906 28.2083 252.906 28.2083 252.909 28.2083Z" fill="black"/>
<path d="M251.394 29.7532C251.34 29.7532 251.286 29.7276 251.255 29.6797L250.859 29.0701C250.811 28.9935 250.833 28.8913 250.906 28.8434C250.982 28.7924 251.084 28.8147 251.134 28.8913L251.531 29.501C251.578 29.5776 251.556 29.6797 251.483 29.7276C251.454 29.7468 251.423 29.7532 251.394 29.7532Z" fill="black"/>
<path d="M247.864 31.5183C247.864 32.9004 246.745 34.0208 245.363 34.0208C243.981 34.0208 242.862 32.9004 242.862 31.5183C242.862 30.1362 243.981 29.0158 245.363 29.0158C246.745 29.0158 247.864 30.1362 247.864 31.5183Z" fill="white"/>
<path d="M246.9 31.5183C246.9 32.3387 246.235 33.0058 245.414 33.0058C244.593 33.0058 243.927 32.3387 243.927 31.5183C243.927 30.698 244.593 30.0309 245.414 30.0309C246.235 30.0309 246.9 30.698 246.9 31.5183Z" fill="black"/>
<path d="M255.194 31.5183C255.194 32.9004 254.072 34.0208 252.691 34.0208C251.309 34.0208 250.19 32.9004 250.19 31.5183C250.19 30.1362 251.309 29.0158 252.691 29.0158C254.072 29.0158 255.194 30.1362 255.194 31.5183Z" fill="white"/>
<path d="M254.228 31.5183C254.228 32.3387 253.562 33.0058 252.741 33.0058C251.92 33.0058 251.255 32.3387 251.255 31.5183C251.255 30.698 251.92 30.0309 252.741 30.0309C253.562 30.0309 254.228 30.698 254.228 31.5183Z" fill="black"/>
<path d="M250.034 33.2803C249.955 33.2803 249.889 33.226 249.873 33.143C249.87 33.1111 249.727 32.3003 249.039 32.3386C248.409 32.3737 248.269 33.1143 248.263 33.1462C248.247 33.2356 248.161 33.2962 248.073 33.2803C247.984 33.2643 247.924 33.1781 247.94 33.0887C248.003 32.7344 248.31 32.0514 249.02 32.0131C249.806 31.9716 250.136 32.6993 250.196 33.0919C250.212 33.1813 250.152 33.2643 250.063 33.2803C250.053 33.2803 250.044 33.2803 250.034 33.2803Z" fill="black"/>
<path d="M257.834 29.0094C257.844 28.9392 257.815 28.8562 257.739 28.8307C257.692 28.8147 257.644 28.8211 257.6 28.8467C257.565 28.8658 257.536 28.8977 257.521 28.936C257.489 28.9999 257.479 29.0797 257.524 29.1403C257.543 29.169 257.575 29.1946 257.606 29.2042C257.647 29.2169 257.689 29.2137 257.723 29.1914C257.787 29.1563 257.825 29.0797 257.834 29.0094Z" fill="#3C733B"/>
<path d="M256.694 28.7988C256.681 28.7573 256.649 28.7253 256.608 28.7126C256.564 28.6998 256.516 28.7126 256.488 28.7445C256.472 28.7605 256.459 28.7796 256.453 28.7988C256.431 28.8849 256.503 29.0062 256.605 28.9743C256.675 28.952 256.713 28.869 256.694 28.7988Z" fill="#3C733B"/>
<path d="M257.229 29.3542C257.216 29.3127 257.181 29.2775 257.14 29.268C257.099 29.2552 257.051 29.268 257.02 29.2999C257.004 29.3158 256.994 29.3318 256.988 29.3542C256.962 29.4403 257.039 29.5584 257.137 29.5297C257.207 29.5074 257.248 29.4244 257.229 29.3542Z" fill="#3C733B"/>
<path d="M256.392 29.967C256.38 29.9255 256.345 29.8904 256.304 29.8809C256.262 29.8681 256.215 29.8809 256.183 29.9128C256.167 29.9287 256.158 29.9447 256.151 29.967C256.126 30.0532 256.202 30.1713 256.3 30.1394C256.37 30.1203 256.411 30.0373 256.392 29.967Z" fill="#5A9958"/>
<path d="M257.619 30.0979C257.59 29.9926 257.504 29.8968 257.387 29.9032C257.314 29.9096 257.251 29.9447 257.207 30.0021C257.168 30.05 257.149 30.1107 257.149 30.1713C257.137 30.2798 257.172 30.3884 257.267 30.4522C257.308 30.4809 257.365 30.4937 257.416 30.4905C257.479 30.4841 257.533 30.4554 257.571 30.4075C257.638 30.3213 257.644 30.1969 257.619 30.0979Z" fill="#5A9958"/>
<path d="M250.199 28.1604C250.168 28.0391 250.069 27.9273 249.933 27.9369C249.848 27.9433 249.775 27.9848 249.724 28.0518C249.68 28.1061 249.657 28.1763 249.654 28.2465C249.645 28.371 249.683 28.4987 249.791 28.5721C249.841 28.604 249.908 28.62 249.968 28.6168C250.038 28.6072 250.101 28.5785 250.145 28.521C250.222 28.4221 250.231 28.2753 250.199 28.1604Z" fill="#62C2CC"/>
<path d="M248.488 29.1148C248.475 29.0669 248.437 29.0286 248.387 29.0158C248.339 29.0031 248.285 29.0158 248.247 29.0541C248.231 29.0701 248.219 29.0924 248.209 29.1148C248.184 29.2169 248.269 29.3542 248.383 29.3191C248.466 29.2935 248.51 29.1978 248.488 29.1148Z" fill="#62C2CC"/>
<path d="M249.115 30.1458C249.1 30.0979 249.062 30.0596 249.014 30.0468C248.963 30.0309 248.909 30.0468 248.875 30.0819C248.856 30.1011 248.843 30.1202 248.837 30.1458C248.808 30.2479 248.894 30.3852 249.011 30.3469C249.09 30.3213 249.138 30.2288 249.115 30.1458Z" fill="#62C2CC"/>
<path d="M249.734 29.4308C249.721 29.3829 249.683 29.3414 249.632 29.3286C249.585 29.3159 249.531 29.3286 249.493 29.3669C249.474 29.3861 249.464 29.4052 249.455 29.4308C249.426 29.5297 249.515 29.667 249.629 29.6319C249.711 29.6063 249.756 29.5138 249.734 29.4308Z" fill="#62C2CC"/>
<path d="M242.609 28.0902C242.574 27.9689 242.476 27.8603 242.34 27.8699C242.254 27.8763 242.181 27.9146 242.13 27.9816C242.086 28.0391 242.064 28.1061 242.064 28.1763C242.051 28.3008 242.089 28.4317 242.2 28.5019C242.248 28.5338 242.314 28.553 242.374 28.5466C242.447 28.5402 242.508 28.5083 242.552 28.4509C242.628 28.3519 242.638 28.2083 242.609 28.0902Z" fill="#5A9958"/>
<path d="M241.433 27.9752C241.42 27.9242 241.382 27.8859 241.331 27.8731C241.284 27.8603 241.23 27.8731 241.192 27.9114C241.173 27.9274 241.163 27.9497 241.154 27.9752C241.125 28.0742 241.214 28.2114 241.328 28.1763C241.411 28.1508 241.455 28.055 241.433 27.9752Z" fill="#5A9958"/>
<path d="M242.593 27.372C242.58 27.3241 242.539 27.2858 242.491 27.2698C242.441 27.2571 242.387 27.273 242.352 27.3081C242.333 27.3273 242.32 27.3464 242.314 27.372C242.285 27.4741 242.374 27.6114 242.488 27.5731C242.571 27.5475 242.615 27.455 242.593 27.372Z" fill="#5A9958"/>
<path d="M241.934 28.9169C241.921 28.869 241.883 28.8307 241.836 28.8147C241.785 28.8019 241.731 28.8179 241.693 28.853C241.677 28.8722 241.665 28.8913 241.658 28.9169C241.63 29.0158 241.715 29.1531 241.833 29.118C241.912 29.0924 241.956 28.9999 241.934 28.9169Z" fill="#3C733B"/>
<path d="M243.243 27.372C243.23 27.3241 243.189 27.2858 243.141 27.2698C243.094 27.2571 243.037 27.273 243.002 27.3081C242.983 27.3273 242.97 27.3464 242.964 27.372C242.935 27.4741 243.024 27.6114 243.138 27.5731C243.221 27.5475 243.265 27.455 243.243 27.372Z" fill="#3C733B"/>
<path d="M249.578 39.5589C249.546 39.4376 249.445 39.3259 249.309 39.3354C249.226 39.3418 249.153 39.3833 249.1 39.4503C249.058 39.5046 249.036 39.5748 249.033 39.645C249.02 39.7695 249.062 39.8972 249.169 39.9706C249.22 40.0025 249.287 40.0185 249.344 40.0153C249.416 40.0089 249.48 39.977 249.524 39.9196C249.6 39.8206 249.61 39.6738 249.578 39.5589Z" fill="#62C2CC"/>
<path d="M251.686 40.4271C251.695 40.3537 251.667 40.2707 251.591 40.2483C251.543 40.2324 251.496 40.2388 251.454 40.2611C251.416 40.2834 251.391 40.3154 251.375 40.3505C251.34 40.4175 251.334 40.4941 251.375 40.558C251.394 40.5867 251.426 40.609 251.461 40.6186C251.499 40.6314 251.54 40.6282 251.578 40.609C251.638 40.5707 251.676 40.4973 251.686 40.4271Z" fill="#62C2CC"/>
<path d="M250.072 38.8088C250.06 38.7577 250.022 38.7194 249.974 38.7066C249.923 38.6939 249.869 38.7066 249.831 38.7449C249.816 38.7609 249.803 38.7832 249.797 38.8088C249.768 38.9077 249.854 39.045 249.971 39.0099C250.05 38.9843 250.098 38.8886 250.072 38.8088Z" fill="#62C2CC"/>
<path d="M249.93 40.7208C249.917 40.6697 249.876 40.6314 249.828 40.6186C249.778 40.6059 249.724 40.6186 249.689 40.6569C249.67 40.6729 249.657 40.6952 249.651 40.7208C249.622 40.8197 249.711 40.957 249.825 40.9219C249.908 40.8963 249.952 40.8006 249.93 40.7208Z" fill="#62C2CC"/>
<path d="M250.466 39.9643C250.453 39.9164 250.415 39.8781 250.364 39.8621C250.317 39.8494 250.263 39.8653 250.225 39.9004C250.209 39.9196 250.196 39.9387 250.187 39.9643C250.161 40.0632 250.247 40.2037 250.361 40.1654C250.443 40.1398 250.488 40.0473 250.466 39.9643Z" fill="#8BD8E0"/>
<path d="M248.085 40.3824C248.073 40.3345 248.035 40.293 247.987 40.2803C247.936 40.2675 247.883 40.2803 247.845 40.3186C247.829 40.3377 247.816 40.3569 247.81 40.3824C247.781 40.4814 247.867 40.6186 247.984 40.5835C248.063 40.558 248.108 40.4654 248.085 40.3824Z" fill="#8BD8E0"/>
<path d="M249.055 41.2602C249.036 41.19 248.982 41.1357 248.913 41.1166C248.843 41.0974 248.767 41.1166 248.716 41.1676C248.691 41.1932 248.672 41.2251 248.662 41.2602C248.624 41.4007 248.745 41.5954 248.91 41.5443C249.024 41.5092 249.087 41.3751 249.055 41.2602Z" fill="#8BD8E0"/>
<path d="M244.232 36.0413C244.016 36.2137 243.088 36.1594 242.758 35.9807C242.986 36.335 243.74 36.4978 243.826 36.5712C243.87 36.6063 243.912 36.6542 243.902 36.7084C243.893 36.7914 243.798 36.8266 243.715 36.8361C243.281 36.9 242.767 36.7468 242.393 36.5169C242.409 36.6893 242.52 36.8393 242.615 36.9798C242.666 37.0564 242.717 37.133 242.761 37.2128C242.793 37.2766 242.869 37.3979 242.771 37.4426C242.695 37.4745 242.596 37.4458 242.523 37.4171C242.435 37.382 242.352 37.3309 242.276 37.2734C242.118 37.1521 241.988 37.0053 241.855 36.8617C241.639 36.6255 241.512 36.4882 241.268 36.2775C241.047 36.0892 240.787 36.0541 240.508 36.0222C239.871 35.9424 239.253 35.7445 238.682 35.4508C238.406 34.5443 238.248 33.5867 238.229 32.5972C238.508 33.0026 239.167 33.8006 239.741 34.2666C240.137 34.5858 240.682 34.889 241.211 34.7997C241.554 34.7422 241.883 34.4677 242.108 34.2219C242.21 34.1134 242.336 33.9985 242.47 33.9282C242.558 33.8804 242.802 33.8261 242.859 33.9474C242.875 33.9825 242.869 34.0208 242.859 34.0559C242.809 34.2059 242.666 34.2985 242.577 34.4262C242.159 35.0231 243.731 34.6177 243.991 34.6337C244.152 34.6464 244.235 34.755 244.149 34.905C243.943 35.2561 242.882 35.3614 242.882 35.3614C243.084 35.5242 243.988 35.6774 244.178 35.7285C244.45 35.8019 244.317 35.9743 244.232 36.0413Z" fill="#56BAC4"/>
<path d="M259.831 32.4632C259.821 33.408 259.688 34.3209 259.451 35.1923C259.115 35.371 258.753 35.5115 258.386 35.6136C258.113 35.687 257.86 35.7573 257.669 35.9775C257.457 36.2201 257.349 36.3733 257.172 36.6382C257.064 36.7978 256.953 36.9638 256.814 37.1075C256.75 37.1745 256.674 37.2383 256.592 37.2862C256.522 37.3213 256.427 37.3692 256.348 37.3469C256.243 37.3149 256.303 37.1841 256.326 37.117C256.357 37.0309 256.395 36.9511 256.437 36.8681C256.509 36.7148 256.598 36.5489 256.589 36.3733C256.253 36.6574 255.768 36.8808 255.327 36.8808C255.245 36.8808 255.143 36.8617 255.124 36.7851C255.109 36.7308 255.14 36.6765 255.178 36.635C255.254 36.5521 255.977 36.2839 256.151 35.8977C255.85 36.1211 254.941 36.3095 254.703 36.1722C254.608 36.1179 254.449 35.9615 254.709 35.853C254.893 35.7732 255.765 35.4923 255.939 35.304C255.939 35.304 254.874 35.3487 254.621 35.0327C254.513 34.8954 254.579 34.7773 254.738 34.7422C254.991 34.6879 256.605 34.8635 256.107 34.3336C255.999 34.2187 255.844 34.1453 255.774 34.0081C255.758 33.9729 255.746 33.9378 255.758 33.9027C255.796 33.7719 256.047 33.791 256.142 33.8229C256.284 33.874 256.424 33.9729 256.541 34.0655C256.801 34.273 257.166 34.4996 257.511 34.506C258.05 34.5188 258.535 34.1294 258.89 33.7655C259.102 33.5516 259.625 32.8781 259.831 32.4632Z" fill="#3C733B"/>
<path d="M249.3 20.9497C249.353 20.8571 249.417 20.7933 249.499 20.7263C249.553 20.6848 249.604 20.6497 249.667 20.6305C249.734 20.6082 249.807 20.6912 249.823 20.7486C249.829 20.7741 249.832 20.7997 249.829 20.822C249.823 20.8667 249.797 20.9018 249.772 20.9369C249.718 21.004 249.648 21.071 249.566 21.0997C249.48 21.1317 249.347 21.1189 249.29 21.0391C249.268 21.0104 249.281 20.9784 249.3 20.9497ZM248.938 20.3943C248.869 20.4422 248.793 20.4741 248.707 20.4837C248.701 20.4837 248.691 20.4837 248.685 20.4805C248.675 20.4741 248.672 20.4613 248.669 20.4486C248.659 20.3783 248.678 20.3113 248.707 20.2475C248.71 20.2443 248.713 20.2379 248.716 20.2315C248.653 20.2251 248.593 20.2251 248.533 20.2283C248.51 20.2571 248.488 20.2826 248.466 20.3017C248.419 20.3496 248.371 20.3975 248.323 20.4422C248.098 20.6529 247.861 20.8444 247.604 21.0135C247.873 21.4317 248.203 21.8115 248.577 22.1371C248.596 22.1531 248.615 22.169 248.637 22.169C248.663 22.1722 248.685 22.1531 248.707 22.1371C248.964 21.9201 249.214 21.6934 249.455 21.454C249.582 21.3296 250.26 20.5954 249.727 20.5539C249.636 20.5443 249.55 20.5858 249.477 20.6337C249.401 20.6848 249.338 20.7454 249.258 20.7933C249.227 20.8093 249.195 20.8252 249.157 20.8284C249.087 20.8284 249.03 20.7742 248.999 20.7103C248.916 20.5316 249.014 20.4262 249.106 20.3113C249.081 20.3049 249.059 20.3017 249.037 20.2954C249.011 20.3337 248.979 20.3688 248.938 20.3943Z" fill="#CCCCCC"/>
<path d="M238.749 27.9274L238.276 28.3519L238.102 28.154L238.574 27.7359L238.749 27.9274Z" fill="black"/>
<path d="M237.658 26.3346L238.02 27.3401C238.042 27.3975 238.074 27.4486 238.115 27.4965L238.669 28.1125C238.752 28.2051 238.898 28.2115 238.993 28.1285L242.184 25.2525C242.279 25.1695 242.286 25.0227 242.203 24.9301L241.775 24.4577C241.601 24.263 241.303 24.2343 241.094 24.3939L240.771 24.6428L239.826 24.3141C239.661 24.2598 239.484 24.2949 239.354 24.4098L237.785 25.8239C237.642 25.9516 237.592 26.1526 237.658 26.3346Z" fill="#914F23"/>
<path d="M241.975 25.1854C242.216 25.4536 242.194 25.8653 241.924 26.1047C241.658 26.3473 241.246 26.325 241.005 26.0569C240.764 25.7887 240.786 25.377 241.053 25.1376C241.322 24.895 241.734 24.9173 241.975 25.1854Z" fill="black"/>
<path d="M241.747 25.3898C241.874 25.5334 241.864 25.7504 241.721 25.8781C241.579 26.0058 241.36 25.993 241.233 25.8526C241.107 25.7121 241.116 25.4919 241.259 25.3642C241.401 25.2365 241.62 25.2493 241.747 25.3898Z" fill="#333333"/>
<path d="M239.674 24.5503L240.533 24.8886L239.522 25.8015L238.967 25.1855L239.674 24.5503Z" fill="#E6E6E6"/>
<path d="M238.825 25.3131L237.899 26.1494L238.28 26.9187L239.379 25.9292L238.825 25.3131Z" fill="#E6E6E6"/>
<path d="M239.839 27.107C240.08 27.3751 240.058 27.7869 239.789 28.0295C239.522 28.2689 239.11 28.2465 238.869 27.9816C238.629 27.7135 238.651 27.3017 238.917 27.0591C239.186 26.8197 239.598 26.8421 239.839 27.107Z" fill="black"/>
<path d="M239.611 27.3145C239.738 27.4549 239.728 27.6752 239.585 27.8028C239.443 27.9305 239.224 27.9178 239.097 27.7773C238.967 27.6337 238.98 27.4166 239.123 27.2889C239.265 27.1613 239.484 27.1708 239.611 27.3145Z" fill="#333333"/>
<path d="M236.809 28.0965C236.812 28.1699 236.821 28.2433 236.818 28.3168C236.809 28.4764 236.726 28.6264 236.6 28.7221C236.476 28.8179 236.308 28.853 236.153 28.8211C236.178 28.9424 236.207 29.0669 236.194 29.1882C236.181 29.3126 236.124 29.4371 236.016 29.501C235.909 29.568 235.766 29.5552 235.649 29.5042C235.36 29.3733 234.939 28.8243 235.316 28.5593C235.392 28.5083 235.503 28.4636 235.497 28.371C235.497 28.3359 235.471 28.304 235.452 28.2721C235.354 28.138 235.262 27.9912 235.23 27.8252C235.199 27.6624 235.234 27.4741 235.363 27.3655C235.44 27.2985 235.544 27.2666 235.646 27.2474C235.826 27.2187 236.016 27.2283 236.197 27.2826C236.178 26.941 236.324 26.7495 236.672 26.6984C236.913 26.6633 237.189 26.7016 237.376 26.8708C237.481 26.9634 237.56 27.091 237.62 27.2155C237.683 27.3432 237.728 27.4805 237.75 27.6209C237.763 27.6943 237.769 27.7677 237.772 27.8411C237.772 27.9114 237.763 27.9848 237.775 28.055C237.785 28.1252 237.813 28.1923 237.877 28.2306C237.931 28.2625 237.997 28.2657 238.054 28.2944C238.061 28.2976 238.067 28.304 238.07 28.3072C238.08 28.3199 238.083 28.3359 238.08 28.3487C238.07 28.4125 238.01 28.4508 237.95 28.4668C237.696 28.5338 237.512 28.3136 237.439 28.0997C237.405 27.9912 237.379 27.8763 237.287 27.7965C237.202 27.7199 237.075 27.6815 236.967 27.7358C236.948 27.7454 236.932 27.7582 236.92 27.7709C236.85 27.8316 236.815 27.9529 236.809 28.0422C236.809 28.0582 236.809 28.0774 236.809 28.0965Z" fill="#999999"/>
<path d="M244.463 23.7714C244.38 24.0428 244.121 23.8736 243.972 23.8544C243.452 23.7842 242.929 24.1896 243.287 24.7514C243.382 24.9014 243.547 24.8759 243.696 24.9014C243.911 24.9365 243.759 25.1727 243.791 25.3036C243.826 25.4504 243.94 25.5685 244.07 25.6419C244.304 25.776 244.586 25.693 244.796 25.5462C244.913 25.46 244.995 25.3546 245.04 25.2142C245.081 25.0865 245.119 24.9461 245.246 24.8727C245.341 24.8152 245.467 24.8248 245.544 24.7354C245.62 24.6556 245.645 24.5311 245.664 24.429C245.702 24.2183 245.658 23.9981 245.49 23.8576C245.442 23.8161 245.353 23.8002 245.312 23.7555C245.261 23.698 245.303 23.5959 245.274 23.5257C245.239 23.4395 245.163 23.3629 245.068 23.3373C244.894 23.2894 244.593 23.3405 244.463 23.7714Z" fill="#CCCCCC"/>
<path d="M257.907 24.7067C257.768 24.8024 257.587 24.812 257.435 24.8822C257.213 24.9844 257.061 25.2206 257.058 25.4631C256.804 25.3897 256.538 25.3163 256.278 25.3546C256.069 25.3865 255.873 25.4919 255.733 25.6515C255.698 25.3993 255.66 25.1344 255.495 24.9365C255.242 24.63 254.786 24.6045 254.386 24.6077C254.519 24.4002 254.763 24.2694 255.011 24.2694C255.27 24.2725 255.515 24.4162 255.774 24.4417C256.139 24.4768 256.446 24.3172 256.636 24.0331C256.716 23.9182 256.839 23.8448 256.96 23.7746C257.061 23.714 257.178 23.6501 257.296 23.6725C257.245 23.7586 257.191 23.848 257.163 23.9438C257.023 24.3906 257.603 24.5566 257.907 24.7067Z" fill="#F6E9C7"/>
<path d="M252.538 20.7391C252.364 20.8189 252.234 20.9785 252.053 21.0423C251.863 21.1125 251.651 21.0678 251.451 21.0391C251.248 21.0104 251.023 21.004 250.868 21.1317C250.77 21.2147 250.713 21.336 250.618 21.419C250.507 21.5147 250.355 21.5466 250.225 21.6169C249.997 21.7382 249.841 21.9903 249.832 22.2489C249.829 22.3223 249.835 22.3989 249.873 22.4659C249.93 22.5744 250.054 22.6351 250.174 22.6574C250.294 22.6798 250.418 22.667 250.542 22.6734C251.179 22.6926 251.737 23.0724 252.291 23.3852C252.37 23.4299 252.453 23.4746 252.545 23.4778C252.643 23.481 252.732 23.4363 252.827 23.4139C253.134 23.3373 253.445 23.4874 253.743 23.5895C254.041 23.6916 254.418 23.7299 254.63 23.4937C254.751 23.3629 254.782 23.1682 254.76 22.9926C254.735 22.8138 254.662 22.6479 254.589 22.4851C254.522 22.3382 254.456 22.1882 254.389 22.0414C254.348 21.952 254.31 21.8594 254.247 21.786C254.088 21.5913 253.895 21.5977 253.67 21.5754C253.413 21.5466 253.407 21.3743 253.356 21.1508C253.274 20.7933 252.906 20.5667 252.538 20.7391Z" fill="#5C5C5C"/>
<path d="M252.158 20.6497C252.072 20.5858 251.958 20.5954 251.936 20.5571C251.927 20.5411 251.92 20.5156 251.917 20.4901L251.955 20.4869V20.3624L251.686 20.3752L251.705 20.4997H251.736C251.733 20.522 251.727 20.5411 251.717 20.5571C251.695 20.5954 251.584 20.5858 251.495 20.6497C251.41 20.7135 251.587 21.5466 251.587 21.5466C251.587 21.5466 251.587 21.5562 251.591 21.5658C251.603 21.6009 251.641 21.6711 251.781 21.6679H251.876C252.012 21.6711 252.053 21.6009 252.063 21.569C252.066 21.5562 252.069 21.5466 252.069 21.5466C252.069 21.5466 252.243 20.7135 252.158 20.6497Z" fill="#5C5C5C"/>
<path d="M253.312 21.6551C253.429 21.6903 253.559 21.6998 253.682 21.6903C253.679 21.7317 253.66 21.7732 253.632 21.8052C253.625 21.8115 253.638 21.8243 253.648 21.8179C253.67 21.7988 253.689 21.7796 253.701 21.7541C253.711 21.7317 253.72 21.7094 253.717 21.6871C253.755 21.6807 253.793 21.6743 253.831 21.6647C253.828 21.7381 253.806 21.7988 253.762 21.8562C253.755 21.8658 253.768 21.8754 253.778 21.869C253.838 21.8179 253.873 21.7349 253.866 21.6583C253.898 21.6488 253.93 21.6392 253.961 21.6264C253.961 21.6296 253.965 21.6328 253.965 21.636C253.977 21.7094 253.961 21.786 253.927 21.853C253.92 21.8658 253.939 21.8818 253.949 21.8658C253.996 21.7924 254.015 21.703 253.999 21.6136C254.044 21.5945 254.085 21.5753 254.126 21.553C254.129 21.5658 254.133 21.5817 254.136 21.5945C254.139 21.6232 254.139 21.6488 254.136 21.6775C254.129 21.7254 254.11 21.7669 254.098 21.8147C254.094 21.8243 254.11 21.8339 254.117 21.8243C254.148 21.7828 254.164 21.7286 254.171 21.6775C254.18 21.636 254.18 21.5753 254.161 21.5338C254.193 21.5147 254.224 21.4924 254.253 21.47C254.304 21.5179 254.354 21.5626 254.392 21.5817C254.405 21.5881 254.434 21.6073 254.449 21.6009C254.494 21.5849 254.583 21.2945 254.589 21.1763C254.589 21.1668 254.579 21.1572 254.57 21.1572C254.478 21.1763 254.123 21.2561 254.107 21.3072C254.107 21.3104 254.107 21.3136 254.11 21.3168C254.113 21.3296 254.171 21.3902 254.234 21.454C254.205 21.47 254.18 21.486 254.152 21.5019C254.117 21.403 253.993 21.3519 253.898 21.3328C253.885 21.3328 253.882 21.3487 253.895 21.3551C253.942 21.3711 253.993 21.387 254.037 21.4189C254.079 21.4445 254.101 21.4796 254.117 21.5211C254.075 21.5434 254.031 21.5626 253.984 21.5817C253.955 21.4955 253.873 21.4126 253.787 21.3934C253.778 21.3902 253.765 21.4062 253.778 21.4126C253.822 21.4381 253.86 21.4604 253.892 21.4987C253.92 21.5275 253.936 21.5594 253.949 21.5945C253.917 21.6041 253.885 21.6136 253.854 21.62C253.828 21.5402 253.762 21.4764 253.686 21.4445C253.673 21.4413 253.66 21.4604 253.673 21.4668C253.743 21.5051 253.79 21.5594 253.819 21.6296C253.787 21.636 253.752 21.6392 253.72 21.6456C253.711 21.5913 253.676 21.5434 253.625 21.5275C253.616 21.5211 253.606 21.537 253.616 21.5466C253.654 21.5722 253.67 21.6073 253.686 21.6456C253.565 21.6551 253.442 21.6424 253.318 21.6168C253.296 21.6105 253.289 21.6488 253.312 21.6551Z" fill="#5C5C5C"/>
<path d="M252.783 20.4294C252.83 20.4518 252.887 20.4454 252.925 20.4326C252.938 20.4294 252.951 20.4198 252.954 20.4135C252.954 20.4103 252.954 20.4103 252.954 20.4071C252.951 20.4039 252.944 20.4007 252.938 20.4007C252.887 20.3879 252.836 20.3911 252.802 20.4167C252.795 20.4198 252.789 20.423 252.783 20.4294ZM252.833 20.5986C252.843 20.605 252.852 20.6082 252.862 20.6114L252.874 20.6146C252.903 20.6273 252.931 20.6369 252.954 20.6273C252.966 20.6209 252.966 20.6146 252.966 20.6146C252.966 20.6146 252.963 20.6114 252.954 20.605C252.928 20.5922 252.878 20.5826 252.849 20.5922C252.846 20.5954 252.84 20.5986 252.833 20.5986ZM252.827 20.8348C252.798 20.8348 252.773 20.822 252.754 20.7997C252.729 20.7742 252.716 20.7359 252.719 20.7007C252.725 20.6624 252.745 20.6305 252.776 20.6018C252.757 20.589 252.738 20.5699 252.729 20.5443C252.716 20.5092 252.722 20.4677 252.741 20.4358C252.706 20.4071 252.684 20.3592 252.697 20.3113C252.713 20.2539 252.779 20.2219 252.824 20.206C252.833 20.2028 252.84 20.206 252.843 20.2156C252.846 20.2219 252.843 20.2283 252.836 20.2315C252.795 20.2475 252.738 20.273 252.725 20.3209C252.716 20.3528 252.735 20.3879 252.76 20.4135C252.767 20.4039 252.776 20.3975 252.786 20.3911C252.827 20.3624 252.887 20.356 252.947 20.372C252.96 20.3752 252.97 20.3784 252.979 20.3911C252.985 20.4007 252.985 20.4103 252.982 20.423C252.976 20.4422 252.951 20.4582 252.931 20.4613C252.868 20.4773 252.814 20.4773 252.77 20.455L252.767 20.4518C252.751 20.4773 252.748 20.5092 252.757 20.5348C252.764 20.5539 252.783 20.5699 252.802 20.5826C252.814 20.5763 252.827 20.5699 252.84 20.5667C252.884 20.5475 252.979 20.5699 252.995 20.605C252.998 20.6146 253.001 20.6337 252.966 20.6529C252.931 20.6688 252.897 20.6561 252.865 20.6433L252.852 20.6401C252.836 20.6337 252.821 20.6273 252.802 20.6177C252.773 20.6401 252.754 20.672 252.748 20.7039C252.745 20.7295 252.754 20.7614 252.776 20.7805C252.789 20.7965 252.808 20.8061 252.827 20.8061C252.83 20.8061 252.83 20.8061 252.833 20.8061C252.84 20.8061 252.846 20.8125 252.846 20.8188C252.846 20.8284 252.843 20.8348 252.833 20.8348C252.83 20.8348 252.83 20.8348 252.827 20.8348Z" fill="#5C5C5C"/>
<defs>
<linearGradient id="paint0_linear_126_1027" x1="11.7328" y1="11.7574" x2="11.7328" y2="42.1704" gradientUnits="userSpaceOnUse">
<stop stop-color="#635BFF"/>
<stop offset="1" stop-color="#5286F0"/>
</linearGradient>
<linearGradient id="paint1_linear_126_1027" x1="32.4679" y1="11.9872" x2="32.4679" y2="41.9023" gradientUnits="userSpaceOnUse">
<stop stop-color="#635BFF"/>
<stop offset="1" stop-color="#5286F0"/>
</linearGradient>
<linearGradient id="paint2_linear_126_1027" x1="50.4208" y1="19.8777" x2="50.4208" y2="42.1577" gradientUnits="userSpaceOnUse">
<stop stop-color="#635BFF"/>
<stop offset="1" stop-color="#5286F0"/>
</linearGradient>
<linearGradient id="paint3_linear_126_1027" x1="75.6921" y1="19.8777" x2="75.6921" y2="41.9023" gradientUnits="userSpaceOnUse">
<stop stop-color="#635BFF"/>
<stop offset="1" stop-color="#5286F0"/>
</linearGradient>
<linearGradient id="paint4_linear_126_1027" x1="100.724" y1="19.8777" x2="100.724" y2="42.1577" gradientUnits="userSpaceOnUse">
<stop stop-color="#635BFF"/>
<stop offset="1" stop-color="#5286F0"/>
</linearGradient>
<linearGradient id="paint5_linear_126_1027" x1="124.469" y1="13.2001" x2="124.469" y2="42.1704" gradientUnits="userSpaceOnUse">
<stop stop-color="#635BFF"/>
<stop offset="1" stop-color="#5286F0"/>
</linearGradient>
</defs>
</svg>
